<svg class="hero" viewBox="0 0 1480 1200" xmlns="http://www.w3.org/2000/svg">
  <!-- Generated by pdf-build/cover_hero.py from figures-src/ch18/coc4-poly1-curves.dat.
       Edit the script, not this file. {accent}, {tint} and {data} are filled by cover_html(). -->
  <defs>
    <filter id="glow" x="-20%" y="-20%" width="140%" height="140%">
      <feGaussianBlur stdDeviation="7"/>
    </filter>
    <radialGradient id="vign" cx=".45" cy=".4" r=".75">
      <stop offset=".5" stop-color="#000" stop-opacity="0"/>
      <stop offset="1" stop-color="#000" stop-opacity=".5"/>
    </radialGradient>
    <linearGradient id="topfade" x1="0" y1="0" x2="0" y2="1">
      <stop offset="0" stop-color="#08090b" stop-opacity=".9"/>
      <stop offset="1" stop-color="#08090b" stop-opacity="0"/>
    </linearGradient>
    <linearGradient id="botfade" x1="0" y1="0" x2="0" y2="1">
      <stop offset="0" stop-color="#08090b" stop-opacity="0"/>
      <stop offset="1" stop-color="#08090b" stop-opacity=".85"/>
    </linearGradient>
  </defs>
  <!-- far tier: chart paper -->
  <path d="M0 4.8H1480M0 243.8H1480M0 482.9H1480M0 721.9H1480M0 961.0H1480M0 1200.0H1480M233.7 0V1200M545.3 0V1200M856.8 0V1200M1168.4 0V1200M1480.0 0V1200" fill="none" stroke="#6e7681" stroke-width="1.2" opacity=".22"/>
  <!-- the fit: a blurred accent copy beneath the tint stroke -->
  <path d="M-13.0 19.1L-12.5 19.3L-12.1 19.6L-11.6 19.9L-11.1 20.2L-10.7 20.6L-10.2 21.0L-9.7 21.4L-9.3 21.8L-8.8 22.2L-8.3 22.6L-7.9 23.0L-7.4 23.4L-6.9 23.9L-6.5 24.3L-6.0 24.8L-5.5 25.3L-5.1 25.8L-4.6 26.3L-4.1 26.9L-3.7 27.4L-3.2 28.0L-2.7 28.7L-2.3 29.3L-1.8 30.0L-1.3 30.7L-0.9 31.5L-0.4 32.3L0.1 33.2L0.5 34.1L1.0 35.1L1.5 36.1L1.9 37.2L2.4 38.4L2.9 39.7L3.3 41.0L3.8 42.5L4.3 44.0L4.8 45.7L5.2 47.5L5.7 49.4L6.2 51.5L6.6 53.8L7.1 56.2L7.6 58.9L8.0 61.9L8.5 65.0L9.0 68.4L9.4 72.1L9.9 76.0L10.4 80.1L10.8 84.5L11.3 89.0L11.8 93.7L12.2 98.6L12.7 103.7L13.2 108.8L13.6 114.0L14.1 119.3L14.6 124.6L15.0 129.9L15.5 135.2L16.0 140.4L16.4 145.6L16.9 150.7L17.4 155.8L17.8 160.7L18.3 165.5L18.8 170.2L19.2 174.7L19.7 179.2L20.2 183.6L20.6 188.0L21.1 192.3L21.6 196.6L22.0 200.8L22.5 204.9L23.0 209.0L23.4 212.9L23.9 216.7L24.4 220.4L24.8 224.0L25.3 227.4L25.8 230.8L26.3 234.2L26.7 237.6L27.2 241.0L27.7 244.6L28.1 248.2L28.6 251.9L29.1 255.5L29.5 259.1L30.0 262.6L30.5 265.9L30.9 269.0L31.4 271.9L31.9 274.6L32.3 277.2L32.8 279.6L33.3 282.2L33.7 284.8L34.2 287.6L34.7 290.7L35.1 294.0L35.6 297.5L36.1 301.2L36.5 304.9L37.0 308.6L37.5 312.2L37.9 315.5L38.4 318.4L38.9 320.9L39.3 323.1L39.8 325.0L40.3 326.6L40.7 328.2L41.2 329.8L41.7 331.6L42.1 333.7L42.6 336.2L43.1 339.1L43.5 342.4L44.0 345.9L44.5 349.7L44.9 353.6L45.4 357.4L45.9 360.9L46.3 363.9L46.8 366.4L47.3 368.3L47.7 369.7L48.2 370.5L48.7 371.0L49.2 371.4L49.6 371.9L50.1 372.6L50.6 373.7L51.0 375.3L51.5 377.5L52.0 380.2L52.4 383.6L52.9 387.4L53.4 391.5L53.8 395.8L54.3 399.9L54.8 403.6L55.2 406.8L55.7 409.3L56.2 410.9L56.6 411.7L57.1 411.8L57.6 411.4L58.0 410.6L58.5 409.9L59.0 409.3L59.4 409.2L59.9 409.7L60.4 410.9L60.8 412.9L61.3 415.6L61.8 419.1L62.2 423.3L62.7 427.9L63.2 432.7L63.6 437.4L64.1 441.8L64.6 445.6L65.0 448.4L65.5 450.2L66.0 450.8L66.4 450.4L66.9 449.2L67.4 447.5L67.8 445.5L68.3 443.7L68.8 442.2L69.2 441.4L69.7 441.3L70.2 442.2L70.7 444.1L71.1 446.9L71.6 450.7L72.1 455.2L72.5 460.4L73.0 465.9L73.5 471.4L73.9 476.6L74.4 481.1L74.9 484.4L75.3 486.5L75.8 487.0L76.3 486.2L76.7 484.3L77.2 481.6L77.7 478.4L78.1 475.3L78.6 472.5L79.1 470.3L79.5 469.0L80.0 468.7L80.5 469.5L80.9 471.5L81.4 474.6L81.9 478.8L82.3 484.0L82.8 489.9L83.3 496.2L83.7 502.6L84.2 508.7L84.7 513.8L85.1 517.6L85.6 519.7L86.1 520.0L86.5 518.6L87.0 515.7L87.5 511.8L87.9 507.4L88.4 502.9L88.9 498.7L89.3 495.3L89.8 492.7L90.3 491.3L90.7 491.1L91.2 492.2L91.7 494.6L92.1 498.3L92.6 503.3L93.1 509.3L93.6 516.1L94.0 523.3L94.5 530.7L95.0 537.4L95.4 543.1L95.9 547.1L96.4 548.9L96.8 548.5L97.3 546.0L97.8 541.7L98.2 536.3L98.7 530.3L99.2 524.4L99.6 518.9L100.1 514.3L100.6 510.7L101.0 508.5L101.5 507.7L102.0 508.4L102.4 510.5L102.9 514.2L103.4 519.3L103.8 525.6L104.3 533.0L104.8 541.1L105.2 549.4L105.7 557.5L106.2 564.4L106.6 569.5L107.1 572.2L107.6 572.2L108.0 569.4L108.5 564.4L109.0 557.8L109.4 550.3L109.9 542.7L110.4 535.5L110.8 529.2L111.3 524.1L111.8 520.3L112.2 518.0L112.7 517.3L113.2 518.3L113.6 521.0L114.1 525.2L114.6 531.0L115.1 538.1L115.5 546.4L116.0 555.5L116.5 564.9L116.9 573.8L117.4 581.3L117.9 586.6L118.3 588.8L118.8 587.7L119.3 583.4L119.7 576.6L120.2 568.1L120.7 558.8L121.1 549.6L121.6 541.0L122.1 533.5L122.5 527.3L123.0 522.6L123.5 519.6L123.9 518.3L124.4 518.8L124.9 521.0L125.3 525.0L125.8 530.6L126.3 537.8L126.7 546.4L127.2 556.0L127.7 566.2L128.1 576.1L128.6 584.8L129.1 591.2L129.5 594.3L130.0 593.5L130.5 588.8L130.9 581.0L131.4 571.1L131.9 560.1L132.3 549.0L132.8 538.6L133.3 529.3L133.7 521.5L134.2 515.3L134.7 510.8L135.1 508.2L135.6 507.4L136.1 508.5L136.5 511.5L137.0 516.3L137.5 522.9L138.0 531.1L138.4 540.6L138.9 551.1L139.4 561.9L139.8 572.0L140.3 580.2L140.8 585.3L141.2 586.1L141.7 582.4L142.2 574.5L142.6 563.7L143.1 551.3L143.6 538.3L144.0 525.8L144.5 514.3L145.0 504.2L145.4 495.8L145.9 489.2L146.4 484.4L146.8 481.6L147.3 480.7L147.8 481.8L148.2 484.8L148.7 489.7L149.2 496.4L149.6 504.8L150.1 514.5L150.6 525.1L151.0 535.8L151.5 545.6L152.0 552.9L152.4 556.4L152.9 555.1L153.4 548.8L153.8 538.3L154.3 525.1L154.8 510.5L155.2 495.8L155.7 481.9L156.2 469.2L156.6 458.1L157.1 448.8L157.6 441.4L158.0 435.9L158.5 432.4L159.0 430.8L159.5 431.3L159.9 433.7L160.4 438.0L160.9 444.1L161.3 451.9L161.8 461.0L162.3 470.8L162.7 480.4L163.2 488.6L163.7 493.6L164.1 494.1L164.6 489.2L165.1 479.1L165.5 465.1L166.0 448.9L166.5 431.8L166.9 415.0L167.4 399.3L167.9 385.0L168.3 372.5L168.8 361.9L169.3 353.1L169.7 346.4L170.2 341.5L170.7 338.7L171.1 337.7L171.6 338.7L172.1 341.4L172.5 345.7L173.0 351.1L173.5 357.2L173.9 362.8L174.4 366.6L174.9 366.9L175.3 362.1L175.8 351.6L176.3 335.9L176.7 316.5L177.2 295.0L177.7 272.9L178.1 251.2L178.6 230.7L179.1 211.7L179.5 194.2L180.0 178.5L180.5 164.5L180.9 152.0L181.4 141.1L181.9 131.6L182.4 123.4L182.8 116.4L183.3 110.5L183.8 105.6L184.2 101.6L184.7 98.4L185.2 95.9L185.6 94.2L186.1 93.0L186.6 92.5L187.0 92.4L187.5 92.8L188.0 93.7L188.4 95.1L188.9 96.9L189.4 99.1L189.8 101.7L190.3 104.8L190.8 108.3L191.2 112.3L191.7 116.8L192.2 121.8L192.6 127.5L193.1 133.7L193.6 140.7L194.0 148.4L194.5 156.9L195.0 166.2L195.4 176.6L195.9 188.0L196.4 200.6L196.8 214.3L197.3 229.4L197.8 245.8L198.2 263.7L198.7 282.8L199.2 303.2L199.6 324.4L200.1 346.0L200.6 367.0L201.0 386.1L201.5 401.8L202.0 412.9L202.4 418.7L202.9 419.5L203.4 416.7L203.9 411.7L204.3 406.0L204.8 400.6L205.3 396.1L205.7 393.1L206.2 391.8L206.7 392.3L207.1 394.6L207.6 398.9L208.1 405.1L208.5 413.3L209.0 423.3L209.5 435.3L209.9 449.0L210.4 464.4L210.9 481.1L211.3 498.5L211.8 515.8L212.3 531.8L212.7 545.0L213.2 553.8L213.7 557.4L214.1 555.9L214.6 550.4L215.1 542.3L215.5 533.3L216.0 524.3L216.5 516.2L216.9 509.4L217.4 504.3L217.9 501.1L218.3 499.7L218.8 500.2L219.3 502.7L219.7 507.1L220.2 513.4L220.7 521.7L221.1 531.9L221.6 543.8L222.1 557.4L222.5 572.4L223.0 588.2L223.5 604.2L223.9 619.0L224.4 631.5L224.9 639.9L225.3 643.3L225.8 641.6L226.3 635.7L226.8 626.9L227.2 616.8L227.7 606.6L228.2 597.1L228.6 588.9L229.1 582.3L229.6 577.4L230.0 574.5L230.5 573.4L231.0 574.3L231.4 577.1L231.9 581.8L232.4 588.5L232.8 597.1L233.3 607.5L233.8 619.6L234.2 633.2L234.7 647.9L235.2 663.0L235.6 677.7L236.1 690.7L236.6 700.3L237.0 705.5L237.5 705.5L238.0 700.8L238.4 692.7L238.9 682.6L239.4 671.8L239.8 661.4L240.3 651.9L240.8 644.0L241.2 637.7L241.7 633.2L242.2 630.6L242.6 629.9L243.1 631.1L243.6 634.3L244.0 639.3L244.5 646.3L245.0 655.2L245.4 665.8L245.9 678.1L246.4 691.7L246.8 706.2L247.3 720.8L247.8 734.5L248.3 745.9L248.7 753.5L249.2 756.3L249.7 754.1L250.1 747.7L250.6 738.4L251.1 727.6L251.5 716.5L252.0 706.1L252.5 696.8L252.9 689.0L253.4 683.0L253.9 678.7L254.3 676.4L254.8 675.9L255.3 677.3L255.7 680.7L256.2 685.9L256.7 693.0L257.1 702.0L257.6 712.7L258.1 724.9L258.5 738.4L259.0 752.6L259.5 766.8L259.9 779.7L260.4 790.0L260.9 796.4L261.3 797.9L261.8 794.5L262.3 787.1L262.7 777.2L263.2 766.0L263.7 754.9L264.1 744.4L264.6 735.2L265.1 727.6L265.5 721.7L266.0 717.6L266.5 715.4L266.9 715.1L267.4 716.8L267.9 720.3L268.3 725.7L268.8 733.0L269.3 742.1L269.7 752.9L270.2 765.2L270.7 778.7L271.2 792.9L271.6 806.7L272.1 819.0L272.6 828.5L273.0 833.7L273.5 834.0L274.0 829.5L274.4 821.3L274.9 810.7L275.4 799.3L275.8 788.0L276.3 777.5L276.8 768.4L277.2 760.9L277.7 755.1L278.2 751.2L278.6 749.2L279.1 749.1L279.6 750.9L280.0 754.6L280.5 760.2L281.0 767.6L281.4 776.8L281.9 787.8L282.4 800.2L282.8 813.7L283.3 827.8L283.8 841.4L284.2 853.4L284.7 862.3L285.2 866.8L285.6 866.2L286.1 860.9L286.6 852.1L287.0 841.1L287.5 829.4L288.0 817.9L288.4 807.3L288.9 798.2L289.4 790.7L289.8 784.9L290.3 781.1L290.8 779.1L291.2 779.0L291.7 780.8L292.2 784.6L292.7 790.2L293.1 797.7L293.6 807.1L294.1 818.1L294.5 830.6L295.0 844.1L295.5 858.2L295.9 871.7L296.4 883.4L296.9 891.8L297.3 895.7L297.8 894.4L298.3 888.5L298.7 879.1L299.2 867.7L299.7 855.7L300.1 844.0L300.6 833.3L301.1 824.1L301.5 816.6L302.0 810.9L302.5 807.0L302.9 805.0L303.4 805.0L303.9 806.9L304.3 810.7L304.8 816.4L305.3 824.0L305.7 833.4L306.2 844.6L306.7 857.2L307.1 870.9L307.6 885.1L308.1 898.7L308.5 910.5L309.0 918.8L309.5 922.4L309.9 920.7L310.4 914.3L310.9 904.4L311.3 892.5L311.8 880.1L312.3 868.2L312.7 857.2L313.2 847.8L313.7 840.0L314.1 834.1L314.6 830.1L315.1 828.0L315.6 827.8L316.0 829.5L316.5 833.2L317.0 838.8L317.4 846.3L317.9 855.7L318.4 866.8L318.8 879.5L319.3 893.3L319.8 907.6L320.2 921.5L320.7 933.5L321.2 942.1L321.6 945.9L322.1 944.3L322.6 937.7L323.0 927.5L323.5 915.3L324.0 902.5L324.4 890.1L324.9 878.7L325.4 868.9L325.8 860.8L326.3 854.5L326.8 850.2L327.2 847.8L327.7 847.3L328.2 848.8L328.6 852.3L329.1 857.7L329.6 865.0L330.0 874.3L330.5 885.3L331.0 897.9L331.4 911.8L331.9 926.3L332.4 940.5L332.8 952.9L333.3 962.1L333.8 966.3L334.2 965.0L334.7 958.4L335.2 947.9L335.6 935.3L336.1 921.9L336.6 908.9L337.1 897.1L337.5 886.7L338.0 878.1L338.5 871.4L338.9 866.6L339.4 863.8L339.9 863.0L340.3 864.1L340.8 867.2L341.3 872.3L341.7 879.3L342.2 888.3L342.7 899.2L343.1 911.7L343.6 925.7L344.1 940.5L344.5 955.1L345.0 968.3L345.5 978.2L345.9 983.3L346.4 982.5L346.9 976.1L347.3 965.4L347.8 952.3L348.3 938.3L348.7 924.6L349.2 912.1L349.7 901.0L350.1 891.8L350.6 884.4L351.1 879.1L351.5 875.7L352.0 874.3L352.5 874.9L352.9 877.5L353.4 882.1L353.9 888.8L354.3 897.4L354.8 907.9L355.3 920.2L355.7 934.1L356.2 949.0L356.7 964.1L357.1 978.1L357.6 989.2L358.1 995.6L358.5 996.0L359.0 990.3L359.5 979.8L360.0 966.4L360.4 951.7L360.9 937.1L361.4 923.6L361.8 911.6L362.3 901.4L362.8 893.1L363.2 886.8L363.7 882.6L364.2 880.3L364.6 880.1L365.1 881.9L365.6 885.8L366.0 891.7L366.5 899.7L367.0 909.6L367.4 921.5L367.9 935.0L368.4 949.8L368.8 965.2L369.3 979.9L369.8 992.2L370.2 1000.1L370.7 1002.0L371.2 997.4L371.6 987.4L372.1 973.7L372.6 958.4L373.0 943.0L373.5 928.5L374.0 915.4L374.4 904.1L374.9 894.8L375.4 887.5L375.8 882.2L376.3 878.9L376.8 877.7L377.2 878.5L377.7 881.4L378.2 886.3L378.6 893.3L379.1 902.3L379.6 913.3L380.0 926.1L380.5 940.4L381.0 955.7L381.5 970.8L381.9 984.1L382.4 993.7L382.9 997.6L383.3 994.7L383.8 985.6L384.3 972.1L384.7 956.3L385.2 939.9L385.7 924.2L386.1 909.9L386.6 897.2L387.1 886.6L387.5 877.9L388.0 871.3L388.5 866.8L388.9 864.3L389.4 863.8L389.9 865.4L390.3 869.0L390.8 874.7L391.3 882.5L391.7 892.3L392.2 904.0L392.7 917.4L393.1 931.9L393.6 946.8L394.1 960.6L394.5 971.3L395.0 976.8L395.5 975.7L395.9 967.8L396.4 954.6L396.9 938.4L397.3 921.1L397.8 904.0L398.3 888.1L398.7 873.9L399.2 861.6L399.7 851.2L400.1 842.9L400.6 836.7L401.1 832.5L401.5 830.3L402.0 830.1L402.5 832.0L402.9 835.9L403.4 841.8L403.9 849.8L404.4 859.6L404.8 871.2L405.3 884.2L405.8 897.7L406.2 910.6L406.7 921.1L407.2 927.1L407.6 926.8L408.1 919.6L408.6 906.6L409.0 889.7L409.5 871.1L410.0 852.4L410.4 834.4L410.9 817.9L411.4 803.2L411.8 790.4L412.3 779.5L412.8 770.5L413.2 763.6L413.7 758.5L414.2 755.4L414.6 754.2L415.1 754.8L415.6 757.3L416.0 761.6L416.5 767.6L417.0 775.1L417.4 783.6L417.9 792.5L418.4 800.6L418.8 806.3L419.3 807.9L419.8 803.7L420.2 793.2L420.7 777.2L421.2 757.2L421.6 735.1L422.1 712.2L422.6 689.6L423.0 667.9L423.5 647.5L424.0 628.4L424.4 610.7L424.9 594.4L425.4 579.5L425.9 565.8L426.3 553.5L426.8 542.4L427.3 532.4L427.7 523.5L428.2 515.6L428.7 508.8L429.1 503.0L429.6 498.1L430.1 494.1L430.5 491.1L431.0 488.9L431.5 487.6L431.9 487.1L432.4 487.5L432.9 488.8L433.3 490.9L433.8 493.9L434.3 497.7L434.7 502.4L435.2 508.0L435.7 514.6L436.1 522.0L436.6 530.5L437.1 539.9L437.5 550.3L438.0 561.9L438.5 574.6L438.9 588.5L439.4 603.8L439.9 620.4L440.3 638.4L440.8 658.1L441.3 679.4L441.7 702.6L442.2 727.7L442.7 754.8L443.1 783.8L443.6 814.4L444.1 845.8L444.5 876.3L445.0 903.0L445.5 922.3L445.9 931.4L446.4 930.3L446.9 922.1L447.3 910.5L447.8 898.3L448.3 887.2L448.8 878.0L449.2 871.0L449.7 866.3L450.2 864.0L450.6 863.9L451.1 866.1L451.6 870.4L452.0 876.9L452.5 885.6L453.0 896.4L453.4 909.4L453.9 924.7L454.4 942.1L454.8 961.8L455.3 983.5L455.8 1006.9L456.2 1031.1L456.7 1054.6L457.2 1074.8L457.6 1088.7L458.1 1094.2L458.6 1091.0L459.0 1081.4L459.5 1068.4L460.0 1054.5L460.4 1041.3L460.9 1029.8L461.4 1020.3L461.8 1012.9L462.3 1007.8L462.8 1005.0L463.2 1004.3L463.7 1005.8L464.2 1009.4L464.6 1015.1L465.1 1023.0L465.6 1033.0L466.0 1045.2L466.5 1059.5L467.0 1076.0L467.4 1094.5L467.9 1114.7L468.4 1135.9L468.8 1157.1L469.3 1176.2L469.8 1190.9L470.3 1198.6L470.7 1198.3L471.2 1191.2L471.7 1179.6L472.1 1166.0L472.6 1152.2L473.1 1139.5L473.5 1128.6L474.0 1119.6L474.5 1112.7L474.9 1107.9L475.4 1105.4L475.9 1104.9L476.3 1106.5L476.8 1110.2L477.3 1116.0L477.7 1123.8L478.2 1133.8L478.7 1145.8L479.1 1159.8L479.6 1175.8L480.1 1193.5L480.5 1212.5L481.0 1231.8M485.2 1227.4L485.7 1215.5L486.1 1205.3L486.6 1197.0L487.1 1190.7L487.5 1186.5L488.0 1184.2L488.5 1184.1L488.9 1185.9L489.4 1189.7L489.9 1195.5L490.3 1203.2L490.8 1213.0L491.3 1224.7L491.7 1238.2M587.6 1238.0L588.0 1235.3L588.5 1234.6L589.0 1235.8L589.4 1239.0M598.3 1236.9L598.8 1227.3L599.2 1219.6L599.7 1213.8L600.2 1210.1L600.6 1208.4L601.1 1208.7L601.6 1211.0L602.0 1215.4L602.5 1221.7L603.0 1230.0M609.5 1239.4L610.0 1225.1L610.5 1212.5L610.9 1201.7L611.4 1193.0L611.9 1186.2L612.3 1181.4L612.8 1178.7L613.3 1178.0L613.7 1179.3L614.2 1182.6L614.7 1188.0L615.1 1195.4L615.6 1204.8L616.1 1216.0L616.5 1228.8M621.2 1229.3L621.7 1212.7L622.1 1197.2L622.6 1183.4L623.1 1171.4L623.5 1161.4L624.0 1153.4L624.5 1147.5L624.9 1143.6L625.4 1141.8L625.9 1142.0L626.4 1144.2L626.8 1148.5L627.3 1154.8L627.8 1163.2L628.2 1173.5L628.7 1185.6L629.2 1199.1L629.6 1213.3L630.1 1227.0L630.6 1238.5M632.4 1229.3L632.9 1213.7L633.4 1196.3L633.8 1178.7L634.3 1162.0L634.8 1146.7L635.2 1133.3L635.7 1121.8L636.2 1112.4L636.6 1105.0L637.1 1099.7L637.6 1096.4L638.0 1095.2L638.5 1096.0L639.0 1098.9L639.4 1103.8L639.9 1110.8L640.4 1119.8L640.8 1130.7L641.3 1143.2L641.8 1156.8L642.2 1170.5L642.7 1182.8L643.2 1191.7L643.6 1195.0L644.1 1191.5L644.6 1181.4L645.0 1166.3L645.5 1148.6L646.0 1130.0L646.4 1111.9L646.9 1095.0L647.4 1079.9L647.9 1066.7L648.3 1055.5L648.8 1046.4L649.3 1039.3L649.7 1034.2L650.2 1031.2L650.7 1030.2L651.1 1031.2L651.6 1034.2L652.1 1039.3L652.5 1046.4L653.0 1055.4L653.5 1066.1L653.9 1078.1L654.4 1090.6L654.9 1102.4L655.3 1111.7L655.8 1116.1L656.3 1114.1L656.7 1105.1L657.2 1090.4L657.7 1072.0L658.1 1052.0L658.6 1031.9L659.1 1012.8L659.5 995.3L660.0 979.5L660.5 965.6L660.9 953.7L661.4 943.7L661.9 935.7L662.3 929.6L662.8 925.4L663.3 923.1L663.7 922.7L664.2 924.1L664.7 927.3L665.1 932.2L665.6 938.5L666.1 945.9L666.5 953.6L667.0 960.6L667.5 965.4L667.9 966.1L668.4 961.2L668.9 950.0L669.3 933.3L669.8 912.5L670.3 889.5L670.8 865.8L671.2 842.2L671.7 819.6L672.2 798.1L672.6 778.0L673.1 759.2L673.6 741.9L674.0 725.9L674.5 711.2L675.0 697.7L675.4 685.5L675.9 674.3L676.4 664.3L676.8 655.4L677.3 647.4L677.8 640.4L678.2 634.4L678.7 629.3L679.2 625.1L679.6 621.8L680.1 619.3L680.6 617.7L681.0 617.0L681.5 617.1L682.0 618.0L682.4 619.8L682.9 622.5L683.4 626.0L683.8 630.4L684.3 635.8L684.8 642.0L685.2 649.2L685.7 657.4L686.2 666.6L686.6 676.9L687.1 688.3L687.6 700.9L688.0 714.8L688.5 730.0L689.0 746.6L689.4 764.7L689.9 784.5L690.4 806.0L690.8 829.4L691.3 854.6L691.8 881.7L692.3 910.3L692.7 939.7L693.2 968.4L693.7 994.0L694.1 1013.2L694.6 1023.1L695.1 1023.3L695.5 1016.1L696.0 1004.8L696.5 992.3L696.9 980.3L697.4 970.0L697.9 961.7L698.3 955.5L698.8 951.6L699.3 950.0L699.7 950.5L700.2 953.1L700.7 957.9L701.1 964.9L701.6 974.0L702.1 985.3L702.5 998.8L703.0 1014.7L703.5 1032.8L703.9 1053.3L704.4 1075.9L704.9 1100.1L705.3 1124.8L705.8 1147.9L706.3 1166.3L706.7 1176.5L707.2 1176.7L707.7 1168.0L708.1 1153.8L708.6 1137.3L709.1 1121.0L709.5 1106.1L710.0 1093.2L710.5 1082.7L710.9 1074.5L711.4 1068.7L711.9 1065.2L712.3 1063.9L712.8 1064.9L713.3 1068.0L713.7 1073.4L714.2 1080.9L714.7 1090.7L715.2 1102.8L715.6 1117.1L716.1 1133.9L716.6 1152.8L717.0 1173.7L717.5 1195.9L718.0 1218.1L718.4 1238.2M720.8 1230.8L721.2 1213.6L721.7 1196.7L722.2 1181.2L722.6 1167.7L723.1 1156.4L723.6 1147.5L724.0 1140.9L724.5 1136.6L725.0 1134.6L725.4 1134.7L725.9 1137.1L726.4 1141.6L726.8 1148.3L727.3 1157.3L727.8 1168.5L728.2 1182.0L728.7 1197.7L729.2 1215.4L729.6 1234.8M734.8 1232.3L735.2 1218.7L735.7 1207.1L736.2 1197.8L736.7 1190.7L737.1 1185.9L737.6 1183.3L738.1 1182.9L738.5 1184.6L739.0 1188.6L739.5 1194.7L739.9 1203.0L740.4 1213.5L740.9 1226.1M748.8 1233.4L749.3 1226.1L749.7 1220.9L750.2 1217.9L750.7 1217.1L751.1 1218.5L751.6 1222.0L752.1 1227.7L752.5 1235.5M875.9 1239.9M886.2 1233.9L886.7 1225.3L887.1 1218.8L887.6 1214.3L888.1 1211.9L888.5 1211.6L889.0 1213.3L889.5 1217.1L889.9 1223.1L890.4 1231.0M897.0 1238.9L897.4 1222.9L897.9 1208.5L898.4 1196.2L898.8 1185.8L899.3 1177.5L899.8 1171.3L900.2 1167.1L900.7 1164.9L901.2 1164.8L901.6 1166.7L902.1 1170.7L902.6 1176.7L903.0 1184.6L903.5 1194.4L904.0 1205.9L904.4 1218.5L904.9 1231.5M907.7 1229.6L908.2 1211.8L908.6 1192.6L909.1 1173.6L909.6 1155.6L910.0 1139.1L910.5 1124.4L911.0 1111.6L911.4 1100.8L911.9 1091.8L912.4 1084.8L912.8 1079.6L913.3 1076.3L913.8 1074.8L914.3 1075.1L914.7 1077.1L915.2 1080.7L915.7 1085.9L916.1 1092.2L916.6 1099.3L917.1 1106.4L917.5 1112.4L918.0 1115.9L918.5 1115.4L918.9 1109.9L919.4 1099.0L919.9 1083.4L920.3 1064.4L920.8 1043.6L921.3 1022.1L921.7 1000.8L922.2 980.2L922.7 960.7L923.1 942.4L923.6 925.4L924.1 909.7L924.5 895.3L925.0 882.1L925.5 870.1L925.9 859.3L926.4 849.5L926.9 840.9L927.3 833.3L927.8 826.7L928.3 821.1L928.7 816.4L929.2 812.6L929.7 809.8L930.1 807.8L930.6 806.7L931.1 806.5L931.5 807.2L932.0 808.7L932.5 811.1L932.9 814.3L933.4 818.5L933.9 823.5L934.3 829.5L934.8 836.4L935.3 844.2L935.7 853.1L936.2 862.9L936.7 873.8L937.2 885.9L937.6 899.1L938.1 913.5L938.6 929.2L939.0 946.3L939.5 964.9L940.0 984.9L940.4 1006.6L940.9 1029.8L941.4 1054.7L941.8 1081.0L942.3 1108.3L942.8 1135.9L943.2 1162.5L943.7 1186.0L944.2 1203.9L944.6 1214.5L945.1 1217.4L945.6 1214.2L946.0 1207.3L946.5 1198.9L947.0 1190.6L947.4 1183.4L947.9 1177.9L948.4 1174.2L948.8 1172.6L949.3 1173.0L949.8 1175.4L950.2 1179.9L950.7 1186.4L951.2 1195.0L951.6 1205.5L952.1 1218.0L952.6 1232.5M1173.2 1221.4L1173.6 1200.2L1174.1 1180.2L1174.6 1161.5L1175.0 1144.1L1175.5 1127.9L1176.0 1113.1L1176.4 1099.5L1176.9 1087.0L1177.4 1075.7L1177.8 1065.5L1178.3 1056.4L1178.8 1048.3L1179.2 1041.1L1179.7 1035.0L1180.2 1029.8L1180.7 1025.5L1181.1 1022.1L1181.6 1019.6L1182.1 1018.0L1182.5 1017.3L1183.0 1017.5L1183.5 1018.6L1183.9 1020.6L1184.4 1023.5L1184.9 1027.3L1185.3 1032.1L1185.8 1037.9L1186.3 1044.6L1186.7 1052.5L1187.2 1061.4L1187.7 1071.4L1188.1 1082.6L1188.6 1095.1L1189.1 1108.8L1189.5 1124.0L1190.0 1140.6L1190.5 1158.7L1190.9 1178.3L1191.4 1199.5L1191.9 1222.1M1428.8 1231.1L1429.3 1220.9L1429.8 1211.7L1430.2 1203.4L1430.7 1196.0L1431.2 1189.6L1431.6 1184.1L1432.1 1179.5L1432.6 1175.7L1433.0 1172.8L1433.5 1170.7L1434.0 1169.5L1434.4 1169.2L1434.9 1169.7L1435.4 1171.0L1435.8 1173.3L1436.3 1176.4L1436.8 1180.4L1437.2 1185.3L1437.7 1191.2L1438.2 1198.1L1438.6 1206.0L1439.1 1215.0L1439.6 1225.0L1440.0 1236.2" fill="none" stroke="{accent}" stroke-width="10"
        stroke-linejoin="round" opacity=".55" filter="url(#glow)"/>
  <path d="M-13.0 19.1L-12.5 19.3L-12.1 19.6L-11.6 19.9L-11.1 20.2L-10.7 20.6L-10.2 21.0L-9.7 21.4L-9.3 21.8L-8.8 22.2L-8.3 22.6L-7.9 23.0L-7.4 23.4L-6.9 23.9L-6.5 24.3L-6.0 24.8L-5.5 25.3L-5.1 25.8L-4.6 26.3L-4.1 26.9L-3.7 27.4L-3.2 28.0L-2.7 28.7L-2.3 29.3L-1.8 30.0L-1.3 30.7L-0.9 31.5L-0.4 32.3L0.1 33.2L0.5 34.1L1.0 35.1L1.5 36.1L1.9 37.2L2.4 38.4L2.9 39.7L3.3 41.0L3.8 42.5L4.3 44.0L4.8 45.7L5.2 47.5L5.7 49.4L6.2 51.5L6.6 53.8L7.1 56.2L7.6 58.9L8.0 61.9L8.5 65.0L9.0 68.4L9.4 72.1L9.9 76.0L10.4 80.1L10.8 84.5L11.3 89.0L11.8 93.7L12.2 98.6L12.7 103.7L13.2 108.8L13.6 114.0L14.1 119.3L14.6 124.6L15.0 129.9L15.5 135.2L16.0 140.4L16.4 145.6L16.9 150.7L17.4 155.8L17.8 160.7L18.3 165.5L18.8 170.2L19.2 174.7L19.7 179.2L20.2 183.6L20.6 188.0L21.1 192.3L21.6 196.6L22.0 200.8L22.5 204.9L23.0 209.0L23.4 212.9L23.9 216.7L24.4 220.4L24.8 224.0L25.3 227.4L25.8 230.8L26.3 234.2L26.7 237.6L27.2 241.0L27.7 244.6L28.1 248.2L28.6 251.9L29.1 255.5L29.5 259.1L30.0 262.6L30.5 265.9L30.9 269.0L31.4 271.9L31.9 274.6L32.3 277.2L32.8 279.6L33.3 282.2L33.7 284.8L34.2 287.6L34.7 290.7L35.1 294.0L35.6 297.5L36.1 301.2L36.5 304.9L37.0 308.6L37.5 312.2L37.9 315.5L38.4 318.4L38.9 320.9L39.3 323.1L39.8 325.0L40.3 326.6L40.7 328.2L41.2 329.8L41.7 331.6L42.1 333.7L42.6 336.2L43.1 339.1L43.5 342.4L44.0 345.9L44.5 349.7L44.9 353.6L45.4 357.4L45.9 360.9L46.3 363.9L46.8 366.4L47.3 368.3L47.7 369.7L48.2 370.5L48.7 371.0L49.2 371.4L49.6 371.9L50.1 372.6L50.6 373.7L51.0 375.3L51.5 377.5L52.0 380.2L52.4 383.6L52.9 387.4L53.4 391.5L53.8 395.8L54.3 399.9L54.8 403.6L55.2 406.8L55.7 409.3L56.2 410.9L56.6 411.7L57.1 411.8L57.6 411.4L58.0 410.6L58.5 409.9L59.0 409.3L59.4 409.2L59.9 409.7L60.4 410.9L60.8 412.9L61.3 415.6L61.8 419.1L62.2 423.3L62.7 427.9L63.2 432.7L63.6 437.4L64.1 441.8L64.6 445.6L65.0 448.4L65.5 450.2L66.0 450.8L66.4 450.4L66.9 449.2L67.4 447.5L67.8 445.5L68.3 443.7L68.8 442.2L69.2 441.4L69.7 441.3L70.2 442.2L70.7 444.1L71.1 446.9L71.6 450.7L72.1 455.2L72.5 460.4L73.0 465.9L73.5 471.4L73.9 476.6L74.4 481.1L74.9 484.4L75.3 486.5L75.8 487.0L76.3 486.2L76.7 484.3L77.2 481.6L77.7 478.4L78.1 475.3L78.6 472.5L79.1 470.3L79.5 469.0L80.0 468.7L80.5 469.5L80.9 471.5L81.4 474.6L81.9 478.8L82.3 484.0L82.8 489.9L83.3 496.2L83.7 502.6L84.2 508.7L84.7 513.8L85.1 517.6L85.6 519.7L86.1 520.0L86.5 518.6L87.0 515.7L87.5 511.8L87.9 507.4L88.4 502.9L88.9 498.7L89.3 495.3L89.8 492.7L90.3 491.3L90.7 491.1L91.2 492.2L91.7 494.6L92.1 498.3L92.6 503.3L93.1 509.3L93.6 516.1L94.0 523.3L94.5 530.7L95.0 537.4L95.4 543.1L95.9 547.1L96.4 548.9L96.8 548.5L97.3 546.0L97.8 541.7L98.2 536.3L98.7 530.3L99.2 524.4L99.6 518.9L100.1 514.3L100.6 510.7L101.0 508.5L101.5 507.7L102.0 508.4L102.4 510.5L102.9 514.2L103.4 519.3L103.8 525.6L104.3 533.0L104.8 541.1L105.2 549.4L105.7 557.5L106.2 564.4L106.6 569.5L107.1 572.2L107.6 572.2L108.0 569.4L108.5 564.4L109.0 557.8L109.4 550.3L109.9 542.7L110.4 535.5L110.8 529.2L111.3 524.1L111.8 520.3L112.2 518.0L112.7 517.3L113.2 518.3L113.6 521.0L114.1 525.2L114.6 531.0L115.1 538.1L115.5 546.4L116.0 555.5L116.5 564.9L116.9 573.8L117.4 581.3L117.9 586.6L118.3 588.8L118.8 587.7L119.3 583.4L119.7 576.6L120.2 568.1L120.7 558.8L121.1 549.6L121.6 541.0L122.1 533.5L122.5 527.3L123.0 522.6L123.5 519.6L123.9 518.3L124.4 518.8L124.9 521.0L125.3 525.0L125.8 530.6L126.3 537.8L126.7 546.4L127.2 556.0L127.7 566.2L128.1 576.1L128.6 584.8L129.1 591.2L129.5 594.3L130.0 593.5L130.5 588.8L130.9 581.0L131.4 571.1L131.9 560.1L132.3 549.0L132.8 538.6L133.3 529.3L133.7 521.5L134.2 515.3L134.7 510.8L135.1 508.2L135.6 507.4L136.1 508.5L136.5 511.5L137.0 516.3L137.5 522.9L138.0 531.1L138.4 540.6L138.9 551.1L139.4 561.9L139.8 572.0L140.3 580.2L140.8 585.3L141.2 586.1L141.7 582.4L142.2 574.5L142.6 563.7L143.1 551.3L143.6 538.3L144.0 525.8L144.5 514.3L145.0 504.2L145.4 495.8L145.9 489.2L146.4 484.4L146.8 481.6L147.3 480.7L147.8 481.8L148.2 484.8L148.7 489.7L149.2 496.4L149.6 504.8L150.1 514.5L150.6 525.1L151.0 535.8L151.5 545.6L152.0 552.9L152.4 556.4L152.9 555.1L153.4 548.8L153.8 538.3L154.3 525.1L154.8 510.5L155.2 495.8L155.7 481.9L156.2 469.2L156.6 458.1L157.1 448.8L157.6 441.4L158.0 435.9L158.5 432.4L159.0 430.8L159.5 431.3L159.9 433.7L160.4 438.0L160.9 444.1L161.3 451.9L161.8 461.0L162.3 470.8L162.7 480.4L163.2 488.6L163.7 493.6L164.1 494.1L164.6 489.2L165.1 479.1L165.5 465.1L166.0 448.9L166.5 431.8L166.9 415.0L167.4 399.3L167.9 385.0L168.3 372.5L168.8 361.9L169.3 353.1L169.7 346.4L170.2 341.5L170.7 338.7L171.1 337.7L171.6 338.7L172.1 341.4L172.5 345.7L173.0 351.1L173.5 357.2L173.9 362.8L174.4 366.6L174.9 366.9L175.3 362.1L175.8 351.6L176.3 335.9L176.7 316.5L177.2 295.0L177.7 272.9L178.1 251.2L178.6 230.7L179.1 211.7L179.5 194.2L180.0 178.5L180.5 164.5L180.9 152.0L181.4 141.1L181.9 131.6L182.4 123.4L182.8 116.4L183.3 110.5L183.8 105.6L184.2 101.6L184.7 98.4L185.2 95.9L185.6 94.2L186.1 93.0L186.6 92.5L187.0 92.4L187.5 92.8L188.0 93.7L188.4 95.1L188.9 96.9L189.4 99.1L189.8 101.7L190.3 104.8L190.8 108.3L191.2 112.3L191.7 116.8L192.2 121.8L192.6 127.5L193.1 133.7L193.6 140.7L194.0 148.4L194.5 156.9L195.0 166.2L195.4 176.6L195.9 188.0L196.4 200.6L196.8 214.3L197.3 229.4L197.8 245.8L198.2 263.7L198.7 282.8L199.2 303.2L199.6 324.4L200.1 346.0L200.6 367.0L201.0 386.1L201.5 401.8L202.0 412.9L202.4 418.7L202.9 419.5L203.4 416.7L203.9 411.7L204.3 406.0L204.8 400.6L205.3 396.1L205.7 393.1L206.2 391.8L206.7 392.3L207.1 394.6L207.6 398.9L208.1 405.1L208.5 413.3L209.0 423.3L209.5 435.3L209.9 449.0L210.4 464.4L210.9 481.1L211.3 498.5L211.8 515.8L212.3 531.8L212.7 545.0L213.2 553.8L213.7 557.4L214.1 555.9L214.6 550.4L215.1 542.3L215.5 533.3L216.0 524.3L216.5 516.2L216.9 509.4L217.4 504.3L217.9 501.1L218.3 499.7L218.8 500.2L219.3 502.7L219.7 507.1L220.2 513.4L220.7 521.7L221.1 531.9L221.6 543.8L222.1 557.4L222.5 572.4L223.0 588.2L223.5 604.2L223.9 619.0L224.4 631.5L224.9 639.9L225.3 643.3L225.8 641.6L226.3 635.7L226.8 626.9L227.2 616.8L227.7 606.6L228.2 597.1L228.6 588.9L229.1 582.3L229.6 577.4L230.0 574.5L230.5 573.4L231.0 574.3L231.4 577.1L231.9 581.8L232.4 588.5L232.8 597.1L233.3 607.5L233.8 619.6L234.2 633.2L234.7 647.9L235.2 663.0L235.6 677.7L236.1 690.7L236.6 700.3L237.0 705.5L237.5 705.5L238.0 700.8L238.4 692.7L238.9 682.6L239.4 671.8L239.8 661.4L240.3 651.9L240.8 644.0L241.2 637.7L241.7 633.2L242.2 630.6L242.6 629.9L243.1 631.1L243.6 634.3L244.0 639.3L244.5 646.3L245.0 655.2L245.4 665.8L245.9 678.1L246.4 691.7L246.8 706.2L247.3 720.8L247.8 734.5L248.3 745.9L248.7 753.5L249.2 756.3L249.7 754.1L250.1 747.7L250.6 738.4L251.1 727.6L251.5 716.5L252.0 706.1L252.5 696.8L252.9 689.0L253.4 683.0L253.9 678.7L254.3 676.4L254.8 675.9L255.3 677.3L255.7 680.7L256.2 685.9L256.7 693.0L257.1 702.0L257.6 712.7L258.1 724.9L258.5 738.4L259.0 752.6L259.5 766.8L259.9 779.7L260.4 790.0L260.9 796.4L261.3 797.9L261.8 794.5L262.3 787.1L262.7 777.2L263.2 766.0L263.7 754.9L264.1 744.4L264.6 735.2L265.1 727.6L265.5 721.7L266.0 717.6L266.5 715.4L266.9 715.1L267.4 716.8L267.9 720.3L268.3 725.7L268.8 733.0L269.3 742.1L269.7 752.9L270.2 765.2L270.7 778.7L271.2 792.9L271.6 806.7L272.1 819.0L272.6 828.5L273.0 833.7L273.5 834.0L274.0 829.5L274.4 821.3L274.9 810.7L275.4 799.3L275.8 788.0L276.3 777.5L276.8 768.4L277.2 760.9L277.7 755.1L278.2 751.2L278.6 749.2L279.1 749.1L279.6 750.9L280.0 754.6L280.5 760.2L281.0 767.6L281.4 776.8L281.9 787.8L282.4 800.2L282.8 813.7L283.3 827.8L283.8 841.4L284.2 853.4L284.7 862.3L285.2 866.8L285.6 866.2L286.1 860.9L286.6 852.1L287.0 841.1L287.5 829.4L288.0 817.9L288.4 807.3L288.9 798.2L289.4 790.7L289.8 784.9L290.3 781.1L290.8 779.1L291.2 779.0L291.7 780.8L292.2 784.6L292.7 790.2L293.1 797.7L293.6 807.1L294.1 818.1L294.5 830.6L295.0 844.1L295.5 858.2L295.9 871.7L296.4 883.4L296.9 891.8L297.3 895.7L297.8 894.4L298.3 888.5L298.7 879.1L299.2 867.7L299.7 855.7L300.1 844.0L300.6 833.3L301.1 824.1L301.5 816.6L302.0 810.9L302.5 807.0L302.9 805.0L303.4 805.0L303.9 806.9L304.3 810.7L304.8 816.4L305.3 824.0L305.7 833.4L306.2 844.6L306.7 857.2L307.1 870.9L307.6 885.1L308.1 898.7L308.5 910.5L309.0 918.8L309.5 922.4L309.9 920.7L310.4 914.3L310.9 904.4L311.3 892.5L311.8 880.1L312.3 868.2L312.7 857.2L313.2 847.8L313.7 840.0L314.1 834.1L314.6 830.1L315.1 828.0L315.6 827.8L316.0 829.5L316.5 833.2L317.0 838.8L317.4 846.3L317.9 855.7L318.4 866.8L318.8 879.5L319.3 893.3L319.8 907.6L320.2 921.5L320.7 933.5L321.2 942.1L321.6 945.9L322.1 944.3L322.6 937.7L323.0 927.5L323.5 915.3L324.0 902.5L324.4 890.1L324.9 878.7L325.4 868.9L325.8 860.8L326.3 854.5L326.8 850.2L327.2 847.8L327.7 847.3L328.2 848.8L328.6 852.3L329.1 857.7L329.6 865.0L330.0 874.3L330.5 885.3L331.0 897.9L331.4 911.8L331.9 926.3L332.4 940.5L332.8 952.9L333.3 962.1L333.8 966.3L334.2 965.0L334.7 958.4L335.2 947.9L335.6 935.3L336.1 921.9L336.6 908.9L337.1 897.1L337.5 886.7L338.0 878.1L338.5 871.4L338.9 866.6L339.4 863.8L339.9 863.0L340.3 864.1L340.8 867.2L341.3 872.3L341.7 879.3L342.2 888.3L342.7 899.2L343.1 911.7L343.6 925.7L344.1 940.5L344.5 955.1L345.0 968.3L345.5 978.2L345.9 983.3L346.4 982.5L346.9 976.1L347.3 965.4L347.8 952.3L348.3 938.3L348.7 924.6L349.2 912.1L349.7 901.0L350.1 891.8L350.6 884.4L351.1 879.1L351.5 875.7L352.0 874.3L352.5 874.9L352.9 877.5L353.4 882.1L353.9 888.8L354.3 897.4L354.8 907.9L355.3 920.2L355.7 934.1L356.2 949.0L356.7 964.1L357.1 978.1L357.6 989.2L358.1 995.6L358.5 996.0L359.0 990.3L359.5 979.8L360.0 966.4L360.4 951.7L360.9 937.1L361.4 923.6L361.8 911.6L362.3 901.4L362.8 893.1L363.2 886.8L363.7 882.6L364.2 880.3L364.6 880.1L365.1 881.9L365.6 885.8L366.0 891.7L366.5 899.7L367.0 909.6L367.4 921.5L367.9 935.0L368.4 949.8L368.8 965.2L369.3 979.9L369.8 992.2L370.2 1000.1L370.7 1002.0L371.2 997.4L371.6 987.4L372.1 973.7L372.6 958.4L373.0 943.0L373.5 928.5L374.0 915.4L374.4 904.1L374.9 894.8L375.4 887.5L375.8 882.2L376.3 878.9L376.8 877.7L377.2 878.5L377.7 881.4L378.2 886.3L378.6 893.3L379.1 902.3L379.6 913.3L380.0 926.1L380.5 940.4L381.0 955.7L381.5 970.8L381.9 984.1L382.4 993.7L382.9 997.6L383.3 994.7L383.8 985.6L384.3 972.1L384.7 956.3L385.2 939.9L385.7 924.2L386.1 909.9L386.6 897.2L387.1 886.6L387.5 877.9L388.0 871.3L388.5 866.8L388.9 864.3L389.4 863.8L389.9 865.4L390.3 869.0L390.8 874.7L391.3 882.5L391.7 892.3L392.2 904.0L392.7 917.4L393.1 931.9L393.6 946.8L394.1 960.6L394.5 971.3L395.0 976.8L395.5 975.7L395.9 967.8L396.4 954.6L396.9 938.4L397.3 921.1L397.8 904.0L398.3 888.1L398.7 873.9L399.2 861.6L399.7 851.2L400.1 842.9L400.6 836.7L401.1 832.5L401.5 830.3L402.0 830.1L402.5 832.0L402.9 835.9L403.4 841.8L403.9 849.8L404.4 859.6L404.8 871.2L405.3 884.2L405.8 897.7L406.2 910.6L406.7 921.1L407.2 927.1L407.6 926.8L408.1 919.6L408.6 906.6L409.0 889.7L409.5 871.1L410.0 852.4L410.4 834.4L410.9 817.9L411.4 803.2L411.8 790.4L412.3 779.5L412.8 770.5L413.2 763.6L413.7 758.5L414.2 755.4L414.6 754.2L415.1 754.8L415.6 757.3L416.0 761.6L416.5 767.6L417.0 775.1L417.4 783.6L417.9 792.5L418.4 800.6L418.8 806.3L419.3 807.9L419.8 803.7L420.2 793.2L420.7 777.2L421.2 757.2L421.6 735.1L422.1 712.2L422.6 689.6L423.0 667.9L423.5 647.5L424.0 628.4L424.4 610.7L424.9 594.4L425.4 579.5L425.9 565.8L426.3 553.5L426.8 542.4L427.3 532.4L427.7 523.5L428.2 515.6L428.7 508.8L429.1 503.0L429.6 498.1L430.1 494.1L430.5 491.1L431.0 488.9L431.5 487.6L431.9 487.1L432.4 487.5L432.9 488.8L433.3 490.9L433.8 493.9L434.3 497.7L434.7 502.4L435.2 508.0L435.7 514.6L436.1 522.0L436.6 530.5L437.1 539.9L437.5 550.3L438.0 561.9L438.5 574.6L438.9 588.5L439.4 603.8L439.9 620.4L440.3 638.4L440.8 658.1L441.3 679.4L441.7 702.6L442.2 727.7L442.7 754.8L443.1 783.8L443.6 814.4L444.1 845.8L444.5 876.3L445.0 903.0L445.5 922.3L445.9 931.4L446.4 930.3L446.9 922.1L447.3 910.5L447.8 898.3L448.3 887.2L448.8 878.0L449.2 871.0L449.7 866.3L450.2 864.0L450.6 863.9L451.1 866.1L451.6 870.4L452.0 876.9L452.5 885.6L453.0 896.4L453.4 909.4L453.9 924.7L454.4 942.1L454.8 961.8L455.3 983.5L455.8 1006.9L456.2 1031.1L456.7 1054.6L457.2 1074.8L457.6 1088.7L458.1 1094.2L458.6 1091.0L459.0 1081.4L459.5 1068.4L460.0 1054.5L460.4 1041.3L460.9 1029.8L461.4 1020.3L461.8 1012.9L462.3 1007.8L462.8 1005.0L463.2 1004.3L463.7 1005.8L464.2 1009.4L464.6 1015.1L465.1 1023.0L465.6 1033.0L466.0 1045.2L466.5 1059.5L467.0 1076.0L467.4 1094.5L467.9 1114.7L468.4 1135.9L468.8 1157.1L469.3 1176.2L469.8 1190.9L470.3 1198.6L470.7 1198.3L471.2 1191.2L471.7 1179.6L472.1 1166.0L472.6 1152.2L473.1 1139.5L473.5 1128.6L474.0 1119.6L474.5 1112.7L474.9 1107.9L475.4 1105.4L475.9 1104.9L476.3 1106.5L476.8 1110.2L477.3 1116.0L477.7 1123.8L478.2 1133.8L478.7 1145.8L479.1 1159.8L479.6 1175.8L480.1 1193.5L480.5 1212.5L481.0 1231.8M485.2 1227.4L485.7 1215.5L486.1 1205.3L486.6 1197.0L487.1 1190.7L487.5 1186.5L488.0 1184.2L488.5 1184.1L488.9 1185.9L489.4 1189.7L489.9 1195.5L490.3 1203.2L490.8 1213.0L491.3 1224.7L491.7 1238.2M587.6 1238.0L588.0 1235.3L588.5 1234.6L589.0 1235.8L589.4 1239.0M598.3 1236.9L598.8 1227.3L599.2 1219.6L599.7 1213.8L600.2 1210.1L600.6 1208.4L601.1 1208.7L601.6 1211.0L602.0 1215.4L602.5 1221.7L603.0 1230.0M609.5 1239.4L610.0 1225.1L610.5 1212.5L610.9 1201.7L611.4 1193.0L611.9 1186.2L612.3 1181.4L612.8 1178.7L613.3 1178.0L613.7 1179.3L614.2 1182.6L614.7 1188.0L615.1 1195.4L615.6 1204.8L616.1 1216.0L616.5 1228.8M621.2 1229.3L621.7 1212.7L622.1 1197.2L622.6 1183.4L623.1 1171.4L623.5 1161.4L624.0 1153.4L624.5 1147.5L624.9 1143.6L625.4 1141.8L625.9 1142.0L626.4 1144.2L626.8 1148.5L627.3 1154.8L627.8 1163.2L628.2 1173.5L628.7 1185.6L629.2 1199.1L629.6 1213.3L630.1 1227.0L630.6 1238.5M632.4 1229.3L632.9 1213.7L633.4 1196.3L633.8 1178.7L634.3 1162.0L634.8 1146.7L635.2 1133.3L635.7 1121.8L636.2 1112.4L636.6 1105.0L637.1 1099.7L637.6 1096.4L638.0 1095.2L638.5 1096.0L639.0 1098.9L639.4 1103.8L639.9 1110.8L640.4 1119.8L640.8 1130.7L641.3 1143.2L641.8 1156.8L642.2 1170.5L642.7 1182.8L643.2 1191.7L643.6 1195.0L644.1 1191.5L644.6 1181.4L645.0 1166.3L645.5 1148.6L646.0 1130.0L646.4 1111.9L646.9 1095.0L647.4 1079.9L647.9 1066.7L648.3 1055.5L648.8 1046.4L649.3 1039.3L649.7 1034.2L650.2 1031.2L650.7 1030.2L651.1 1031.2L651.6 1034.2L652.1 1039.3L652.5 1046.4L653.0 1055.4L653.5 1066.1L653.9 1078.1L654.4 1090.6L654.9 1102.4L655.3 1111.7L655.8 1116.1L656.3 1114.1L656.7 1105.1L657.2 1090.4L657.7 1072.0L658.1 1052.0L658.6 1031.9L659.1 1012.8L659.5 995.3L660.0 979.5L660.5 965.6L660.9 953.7L661.4 943.7L661.9 935.7L662.3 929.6L662.8 925.4L663.3 923.1L663.7 922.7L664.2 924.1L664.7 927.3L665.1 932.2L665.6 938.5L666.1 945.9L666.5 953.6L667.0 960.6L667.5 965.4L667.9 966.1L668.4 961.2L668.9 950.0L669.3 933.3L669.8 912.5L670.3 889.5L670.8 865.8L671.2 842.2L671.7 819.6L672.2 798.1L672.6 778.0L673.1 759.2L673.6 741.9L674.0 725.9L674.5 711.2L675.0 697.7L675.4 685.5L675.9 674.3L676.4 664.3L676.8 655.4L677.3 647.4L677.8 640.4L678.2 634.4L678.7 629.3L679.2 625.1L679.6 621.8L680.1 619.3L680.6 617.7L681.0 617.0L681.5 617.1L682.0 618.0L682.4 619.8L682.9 622.5L683.4 626.0L683.8 630.4L684.3 635.8L684.8 642.0L685.2 649.2L685.7 657.4L686.2 666.6L686.6 676.9L687.1 688.3L687.6 700.9L688.0 714.8L688.5 730.0L689.0 746.6L689.4 764.7L689.9 784.5L690.4 806.0L690.8 829.4L691.3 854.6L691.8 881.7L692.3 910.3L692.7 939.7L693.2 968.4L693.7 994.0L694.1 1013.2L694.6 1023.1L695.1 1023.3L695.5 1016.1L696.0 1004.8L696.5 992.3L696.9 980.3L697.4 970.0L697.9 961.7L698.3 955.5L698.8 951.6L699.3 950.0L699.7 950.5L700.2 953.1L700.7 957.9L701.1 964.9L701.6 974.0L702.1 985.3L702.5 998.8L703.0 1014.7L703.5 1032.8L703.9 1053.3L704.4 1075.9L704.9 1100.1L705.3 1124.8L705.8 1147.9L706.3 1166.3L706.7 1176.5L707.2 1176.7L707.7 1168.0L708.1 1153.8L708.6 1137.3L709.1 1121.0L709.5 1106.1L710.0 1093.2L710.5 1082.7L710.9 1074.5L711.4 1068.7L711.9 1065.2L712.3 1063.9L712.8 1064.9L713.3 1068.0L713.7 1073.4L714.2 1080.9L714.7 1090.7L715.2 1102.8L715.6 1117.1L716.1 1133.9L716.6 1152.8L717.0 1173.7L717.5 1195.9L718.0 1218.1L718.4 1238.2M720.8 1230.8L721.2 1213.6L721.7 1196.7L722.2 1181.2L722.6 1167.7L723.1 1156.4L723.6 1147.5L724.0 1140.9L724.5 1136.6L725.0 1134.6L725.4 1134.7L725.9 1137.1L726.4 1141.6L726.8 1148.3L727.3 1157.3L727.8 1168.5L728.2 1182.0L728.7 1197.7L729.2 1215.4L729.6 1234.8M734.8 1232.3L735.2 1218.7L735.7 1207.1L736.2 1197.8L736.7 1190.7L737.1 1185.9L737.6 1183.3L738.1 1182.9L738.5 1184.6L739.0 1188.6L739.5 1194.7L739.9 1203.0L740.4 1213.5L740.9 1226.1M748.8 1233.4L749.3 1226.1L749.7 1220.9L750.2 1217.9L750.7 1217.1L751.1 1218.5L751.6 1222.0L752.1 1227.7L752.5 1235.5M875.9 1239.9M886.2 1233.9L886.7 1225.3L887.1 1218.8L887.6 1214.3L888.1 1211.9L888.5 1211.6L889.0 1213.3L889.5 1217.1L889.9 1223.1L890.4 1231.0M897.0 1238.9L897.4 1222.9L897.9 1208.5L898.4 1196.2L898.8 1185.8L899.3 1177.5L899.8 1171.3L900.2 1167.1L900.7 1164.9L901.2 1164.8L901.6 1166.7L902.1 1170.7L902.6 1176.7L903.0 1184.6L903.5 1194.4L904.0 1205.9L904.4 1218.5L904.9 1231.5M907.7 1229.6L908.2 1211.8L908.6 1192.6L909.1 1173.6L909.6 1155.6L910.0 1139.1L910.5 1124.4L911.0 1111.6L911.4 1100.8L911.9 1091.8L912.4 1084.8L912.8 1079.6L913.3 1076.3L913.8 1074.8L914.3 1075.1L914.7 1077.1L915.2 1080.7L915.7 1085.9L916.1 1092.2L916.6 1099.3L917.1 1106.4L917.5 1112.4L918.0 1115.9L918.5 1115.4L918.9 1109.9L919.4 1099.0L919.9 1083.4L920.3 1064.4L920.8 1043.6L921.3 1022.1L921.7 1000.8L922.2 980.2L922.7 960.7L923.1 942.4L923.6 925.4L924.1 909.7L924.5 895.3L925.0 882.1L925.5 870.1L925.9 859.3L926.4 849.5L926.9 840.9L927.3 833.3L927.8 826.7L928.3 821.1L928.7 816.4L929.2 812.6L929.7 809.8L930.1 807.8L930.6 806.7L931.1 806.5L931.5 807.2L932.0 808.7L932.5 811.1L932.9 814.3L933.4 818.5L933.9 823.5L934.3 829.5L934.8 836.4L935.3 844.2L935.7 853.1L936.2 862.9L936.7 873.8L937.2 885.9L937.6 899.1L938.1 913.5L938.6 929.2L939.0 946.3L939.5 964.9L940.0 984.9L940.4 1006.6L940.9 1029.8L941.4 1054.7L941.8 1081.0L942.3 1108.3L942.8 1135.9L943.2 1162.5L943.7 1186.0L944.2 1203.9L944.6 1214.5L945.1 1217.4L945.6 1214.2L946.0 1207.3L946.5 1198.9L947.0 1190.6L947.4 1183.4L947.9 1177.9L948.4 1174.2L948.8 1172.6L949.3 1173.0L949.8 1175.4L950.2 1179.9L950.7 1186.4L951.2 1195.0L951.6 1205.5L952.1 1218.0L952.6 1232.5M1173.2 1221.4L1173.6 1200.2L1174.1 1180.2L1174.6 1161.5L1175.0 1144.1L1175.5 1127.9L1176.0 1113.1L1176.4 1099.5L1176.9 1087.0L1177.4 1075.7L1177.8 1065.5L1178.3 1056.4L1178.8 1048.3L1179.2 1041.1L1179.7 1035.0L1180.2 1029.8L1180.7 1025.5L1181.1 1022.1L1181.6 1019.6L1182.1 1018.0L1182.5 1017.3L1183.0 1017.5L1183.5 1018.6L1183.9 1020.6L1184.4 1023.5L1184.9 1027.3L1185.3 1032.1L1185.8 1037.9L1186.3 1044.6L1186.7 1052.5L1187.2 1061.4L1187.7 1071.4L1188.1 1082.6L1188.6 1095.1L1189.1 1108.8L1189.5 1124.0L1190.0 1140.6L1190.5 1158.7L1190.9 1178.3L1191.4 1199.5L1191.9 1222.1M1428.8 1231.1L1429.3 1220.9L1429.8 1211.7L1430.2 1203.4L1430.7 1196.0L1431.2 1189.6L1431.6 1184.1L1432.1 1179.5L1432.6 1175.7L1433.0 1172.8L1433.5 1170.7L1434.0 1169.5L1434.4 1169.2L1434.9 1169.7L1435.4 1171.0L1435.8 1173.3L1436.3 1176.4L1436.8 1180.4L1437.2 1185.3L1437.7 1191.2L1438.2 1198.1L1438.6 1206.0L1439.1 1215.0L1439.6 1225.0L1440.0 1236.2" fill="none" stroke="{tint}" stroke-width="2.6"
        stroke-linejoin="round"/>
  <!-- measured points on top of the fit, so both read -->
  <path d="M0.1 30.9h0M0.5 31.7h0M1.0 32.8h0M1.5 33.2h0M1.9 33.8h0M2.4 34.6h0M2.9 35.5h0M3.3 36.5h0M3.8 37.9h0M4.3 39.3h0M4.8 40.6h0M5.2 41.9h0M5.7 43.2h0M6.2 44.8h0M6.6 46.3h0M7.1 48.5h0M7.6 50.8h0M8.0 53.4h0M8.5 56.2h0M9.0 59.1h0M9.4 62.2h0M9.9 65.4h0M10.4 68.2h0M10.8 71.6h0M11.3 75.7h0M11.8 79.8h0M12.2 84.5h0M12.7 89.3h0M13.2 94.1h0M13.6 98.9h0M14.1 103.8h0M14.6 109.4h0M15.0 114.5h0M15.5 120.0h0M16.0 125.5h0M16.4 131.1h0M16.9 136.0h0M17.4 141.1h0M17.8 146.1h0M18.3 151.0h0M18.8 155.2h0M19.2 160.4h0M19.7 164.7h0M20.2 169.5h0M20.6 174.1h0M21.1 178.5h0M21.6 183.0h0M22.0 186.6h0M22.5 190.7h0M23.0 195.1h0M23.4 199.6h0M23.9 204.3h0M24.4 208.7h0M24.8 212.1h0M25.3 215.7h0M25.8 219.5h0M26.3 221.9h0M26.7 224.8h0M27.2 227.9h0M27.7 231.6h0M28.1 235.2h0M28.6 238.6h0M29.1 243.2h0M29.5 246.3h0M30.0 250.7h0M30.5 253.8h0M30.9 257.7h0M31.4 261.0h0M31.9 263.9h0M32.3 266.6h0M32.8 268.3h0M33.3 270.7h0M33.7 272.8h0M34.2 274.8h0M34.7 276.8h0M35.1 280.3h0M35.6 284.3h0M36.1 287.6h0M36.5 291.6h0M37.0 296.5h0M37.5 301.0h0M37.9 303.6h0M38.4 305.8h0M38.9 309.7h0M39.3 310.9h0M39.8 313.0h0M40.3 314.0h0M40.7 314.9h0M41.2 315.5h0M41.7 316.1h0M42.1 316.8h0M42.6 318.9h0M43.1 322.2h0M43.5 325.3h0M44.0 329.1h0M44.5 333.0h0M44.9 338.2h0M45.4 342.6h0M45.9 346.7h0M46.3 350.3h0M46.8 352.3h0M47.3 354.2h0M47.7 354.9h0M48.2 356.9h0M48.7 355.9h0M49.2 357.0h0M49.6 355.0h0M50.1 353.9h0M50.6 354.5h0M51.0 356.8h0M51.5 358.8h0M52.0 363.6h0M52.4 365.3h0M52.9 370.0h0M53.4 375.7h0M53.8 378.9h0M54.3 384.9h0M54.8 388.7h0M55.2 391.9h0M55.7 397.1h0M56.2 397.0h0M56.6 398.9h0M57.1 396.7h0M57.6 394.6h0M58.0 393.4h0M58.5 391.8h0M59.0 389.4h0M59.4 387.8h0M59.9 389.2h0M60.4 389.6h0M60.8 391.9h0M61.3 396.1h0M61.8 401.0h0M62.2 406.7h0M62.7 412.3h0M63.2 418.4h0M63.6 425.4h0M64.1 431.1h0M64.6 434.6h0M65.0 438.9h0M65.5 438.0h0M66.0 438.0h0M66.4 435.8h0M66.9 433.3h0M67.4 428.2h0M67.8 426.3h0M68.3 422.5h0M68.8 421.7h0M69.2 420.3h0M69.7 421.3h0M70.2 421.4h0M70.7 423.6h0M71.1 426.4h0M71.6 431.8h0M72.1 438.9h0M72.5 444.8h0M73.0 451.5h0M73.5 459.9h0M73.9 468.5h0M74.4 472.1h0M74.9 474.4h0M75.3 479.3h0M75.8 479.0h0M76.3 475.7h0M76.7 470.3h0M77.2 464.6h0M77.7 458.2h0M78.1 453.8h0M78.6 450.8h0M79.1 444.9h0M79.5 444.4h0M80.0 443.6h0M80.5 446.2h0M80.9 448.8h0M81.4 451.8h0M81.9 456.8h0M82.3 466.7h0M82.8 473.1h0M83.3 483.8h0M83.7 494.0h0M84.2 500.5h0M84.7 507.9h0M85.1 511.9h0M85.6 514.1h0M86.1 512.2h0M86.5 507.0h0M87.0 498.7h0M87.5 491.4h0M87.9 486.8h0M88.4 476.7h0M88.9 474.5h0M89.3 467.8h0M89.8 463.8h0M90.3 464.8h0M90.7 460.9h0M91.2 465.1h0M91.7 469.1h0M92.1 475.1h0M92.6 483.1h0M93.1 492.6h0M93.6 501.5h0M94.0 511.6h0M94.5 521.5h0M95.0 532.0h0M95.4 539.9h0M95.9 541.9h0M96.4 543.0h0M96.8 539.3h0M97.3 535.5h0M97.8 525.7h0M98.2 515.1h0M98.7 504.4h0M99.2 495.9h0M99.6 489.5h0M100.1 483.1h0M100.6 480.4h0M101.0 477.4h0M101.5 477.2h0M102.0 478.5h0M102.4 483.4h0M102.9 487.1h0M103.4 497.4h0M103.8 503.4h0M104.3 517.2h0M104.8 528.1h0M105.2 540.5h0M105.7 552.6h0M106.2 562.9h0M106.6 566.9h0M107.1 571.5h0M107.6 566.1h0M108.0 562.9h0M108.5 546.0h0M109.0 536.5h0M109.4 523.3h0M109.9 512.8h0M110.4 501.9h0M110.8 493.6h0M111.3 484.9h0M111.8 484.0h0M112.2 482.0h0M112.7 484.4h0M113.2 485.8h0M113.6 490.5h0M114.1 498.0h0M114.6 505.2h0M115.1 517.8h0M115.5 530.1h0M116.0 544.0h0M116.5 559.1h0M116.9 575.4h0M117.4 584.6h0M117.9 591.7h0M118.3 590.7h0M118.8 588.6h0M119.3 574.2h0M119.7 564.1h0M120.2 547.5h0M120.7 535.9h0M121.1 518.6h0M121.6 509.5h0M122.1 500.5h0M122.5 491.5h0M123.0 484.9h0M123.5 482.4h0M123.9 480.8h0M124.4 485.9h0M124.9 488.5h0M125.3 494.5h0M125.8 505.4h0M126.3 513.7h0M126.7 526.6h0M127.2 544.6h0M127.7 560.8h0M128.1 576.9h0M128.6 586.7h0M129.1 598.1h0M129.5 598.5h0M130.0 599.3h0M130.5 586.2h0M130.9 566.6h0M131.4 551.1h0M131.9 534.9h0M132.3 517.5h0M132.8 504.0h0M133.3 492.3h0M133.7 482.8h0M134.2 476.6h0M134.7 472.2h0M135.1 467.4h0M135.6 469.7h0M136.1 471.6h0M136.5 478.3h0M137.0 485.7h0M137.5 494.3h0M138.0 507.6h0M138.4 523.0h0M138.9 538.3h0M139.4 555.7h0M139.8 578.2h0M140.3 586.6h0M140.8 602.6h0M141.2 598.2h0M141.7 592.2h0M142.2 571.8h0M142.6 554.6h0M143.1 535.7h0M143.6 517.2h0M144.0 499.7h0M144.5 485.3h0M145.0 472.7h0M145.4 461.4h0M145.9 453.1h0M146.4 448.8h0M146.8 447.3h0M147.3 446.8h0M147.8 451.7h0M148.2 455.5h0M148.7 461.7h0M149.2 474.0h0M149.6 484.4h0M150.1 501.8h0M150.6 516.4h0M151.0 538.3h0M151.5 555.5h0M152.0 567.1h0M152.4 575.6h0M152.9 572.7h0M153.4 558.4h0M153.8 537.8h0M154.3 514.2h0M154.8 492.7h0M155.2 473.7h0M155.7 456.0h0M156.2 439.6h0M156.6 425.5h0M157.1 416.7h0M157.6 407.3h0M158.0 402.1h0M158.5 397.4h0M159.0 396.5h0M159.5 399.4h0M159.9 403.3h0M160.4 409.5h0M160.9 419.8h0M161.3 431.5h0M161.8 444.5h0M162.3 461.7h0M162.7 477.8h0M163.2 494.3h0M163.7 507.6h0M164.1 511.2h0M164.6 508.2h0M165.1 488.1h0M165.5 468.5h0M166.0 439.6h0M166.5 416.9h0M166.9 392.5h0M167.4 373.2h0M167.9 356.5h0M168.3 341.9h0M168.8 329.5h0M169.3 319.4h0M169.7 311.4h0M170.2 305.6h0M170.7 303.5h0M171.1 302.3h0M171.6 304.2h0M172.1 309.5h0M172.5 315.6h0M173.0 325.1h0M173.5 336.2h0M173.9 350.4h0M174.4 363.5h0M174.9 373.4h0M175.3 377.6h0M175.8 374.3h0M176.3 359.4h0M176.7 337.5h0M177.2 309.8h0M177.7 280.9h0M178.1 253.2h0M178.6 227.3h0M179.1 205.1h0M179.5 185.2h0M180.0 167.6h0M180.5 152.7h0M180.9 138.7h0M181.4 126.9h0M181.9 117.4h0M182.4 108.5h0M182.8 102.0h0M183.3 95.9h0M183.8 91.6h0M184.2 88.0h0M184.7 85.7h0M185.2 83.8h0M185.6 82.2h0M186.1 81.1h0M186.6 80.1h0M187.0 80.3h0M187.5 80.2h0M188.0 81.3h0M188.4 82.8h0M188.9 84.7h0M189.4 87.2h0M189.8 89.4h0M190.3 92.0h0M190.8 94.8h0M191.2 99.2h0M191.7 103.5h0M192.2 108.2h0M192.6 113.6h0M193.1 119.4h0M193.6 126.2h0M194.0 133.0h0M194.5 140.6h0M195.0 149.3h0M195.4 159.2h0M195.9 170.3h0M196.4 181.8h0M196.8 196.2h0M197.3 210.6h0M197.8 227.2h0M198.2 244.3h0M198.7 263.1h0M199.2 284.3h0M199.6 306.0h0M200.1 326.8h0M200.6 350.4h0M201.0 369.1h0M201.5 385.7h0M202.0 394.9h0M202.4 402.0h0M202.9 402.1h0M203.4 398.0h0M203.9 393.8h0M204.3 389.0h0M204.8 382.7h0M205.3 377.8h0M205.7 375.6h0M206.2 374.3h0M206.7 375.1h0M207.1 377.1h0M207.6 383.3h0M208.1 389.4h0M208.5 397.1h0M209.0 409.3h0M209.5 420.5h0M209.9 433.6h0M210.4 448.0h0M210.9 465.2h0M211.3 481.0h0M211.8 498.5h0M212.3 514.2h0M212.7 521.2h0M213.2 533.2h0M213.7 535.5h0M214.1 528.4h0M214.6 521.2h0M215.1 517.4h0M215.5 507.3h0M216.0 499.7h0M216.5 494.1h0M216.9 487.2h0M217.4 482.8h0M217.9 480.2h0M218.3 479.4h0M218.8 479.4h0M219.3 481.1h0M219.7 489.9h0M220.2 496.2h0M220.7 505.7h0M221.1 515.6h0M221.6 526.5h0M222.1 538.2h0M222.5 554.9h0M223.0 571.2h0M223.5 586.3h0M223.9 598.9h0M224.4 604.3h0M224.9 611.8h0M225.3 619.2h0M225.8 614.5h0M226.3 610.5h0M226.8 602.0h0M227.2 593.5h0M227.7 583.2h0M228.2 580.5h0M228.6 564.9h0M229.1 565.4h0M229.6 561.3h0M230.0 556.4h0M230.5 553.3h0M231.0 555.5h0M231.4 562.7h0M231.9 565.4h0M232.4 569.3h0M232.8 580.5h0M233.3 590.9h0M233.8 602.9h0M234.2 616.2h0M234.7 631.7h0M235.2 639.7h0M235.6 651.3h0M236.1 668.2h0M236.6 684.0h0M237.0 677.5h0M237.5 680.9h0M238.0 676.0h0M238.4 664.1h0M238.9 664.0h0M239.4 652.9h0M239.8 643.7h0M240.3 638.5h0M240.8 629.9h0M241.2 628.5h0M241.7 624.6h0M242.2 623.3h0M242.6 621.5h0M243.1 623.3h0M243.6 624.5h0M244.0 635.6h0M244.5 638.6h0M245.0 649.7h0M245.4 656.2h0M245.9 670.8h0M246.4 683.8h0M246.8 694.0h0M247.3 714.9h0M247.8 719.7h0M248.3 725.8h0M248.7 735.0h0M249.2 725.1h0M249.7 729.1h0M250.1 711.5h0M250.6 717.6h0M251.1 702.2h0M251.5 690.5h0M252.0 681.7h0M252.5 677.9h0M252.9 671.5h0M253.4 673.7h0M253.9 671.7h0M254.3 670.5h0M254.8 674.7h0M255.3 672.5h0M255.7 675.9h0M256.2 684.6h0M256.7 684.5h0M257.1 697.2h0M257.6 711.3h0M258.1 716.1h0M258.5 730.4h0M259.0 744.0h0M259.5 751.8h0M259.9 758.1h0M260.4 768.9h0M260.9 767.5h0M261.3 769.3h0M261.8 757.7h0M262.3 750.3h0M262.7 741.9h0M263.2 744.6h0M263.7 729.1h0M264.1 718.2h0M264.6 717.8h0M265.1 709.8h0M265.5 707.0h0M266.0 709.3h0M266.5 704.7h0M266.9 708.9h0M267.4 721.6h0M267.9 722.6h0M268.3 723.6h0M268.8 735.0h0M269.3 743.2h0M269.7 759.2h0M270.2 773.5h0M270.7 774.2h0M271.2 790.1h0M271.6 800.3h0M272.1 812.0h0M272.6 806.3h0M273.0 809.9h0M273.5 801.6h0M274.0 791.2h0M274.4 783.2h0M274.9 769.8h0M275.4 766.2h0M275.8 755.5h0M276.3 749.3h0M276.8 742.8h0M277.2 743.7h0M277.7 734.7h0M278.2 741.6h0M278.6 743.7h0M279.1 739.0h0M279.6 744.8h0M280.0 760.8h0M280.5 766.6h0M281.0 760.6h0M281.4 791.2h0M281.9 783.7h0M282.4 808.3h0M282.8 816.5h0M283.3 824.0h0M283.8 831.9h0M284.2 844.3h0M284.7 842.4h0M285.2 837.9h0M285.6 831.9h0M286.1 826.7h0M286.6 812.3h0M287.0 792.1h0M287.5 786.3h0M288.0 778.3h0M288.4 772.1h0M288.9 767.7h0M289.4 769.8h0M289.8 765.5h0M290.3 752.8h0M290.8 771.2h0M291.2 770.7h0M291.7 772.8h0M292.2 777.8h0M292.7 784.2h0M293.1 813.4h0M293.6 811.6h0M294.1 827.9h0M294.5 842.4h0M295.0 840.2h0M295.5 862.6h0M295.9 855.1h0M296.4 861.5h0M296.9 875.1h0M297.3 873.2h0M297.8 856.2h0M298.3 846.6h0M298.7 824.3h0M299.2 821.7h0M299.7 803.1h0M300.1 814.4h0M300.6 787.7h0M301.1 793.2h0M301.5 779.3h0M302.0 780.3h0M302.5 782.6h0M302.9 777.6h0M303.4 799.7h0M303.9 795.0h0M304.3 809.3h0M304.8 811.3h0M305.3 829.1h0M305.7 834.0h0M306.2 844.7h0M306.7 882.9h0M307.1 897.5h0M307.6 907.3h0M308.1 899.0h0M308.5 899.8h0M309.0 906.4h0M309.5 891.4h0M309.9 885.0h0M310.4 865.5h0M310.9 852.5h0M311.3 844.7h0M311.8 824.0h0M312.3 825.1h0M312.7 817.6h0M313.2 797.9h0M313.7 809.3h0M314.1 812.0h0M314.6 804.7h0M315.1 802.8h0M315.6 811.0h0M316.0 815.8h0M316.5 816.9h0M317.0 835.8h0M317.4 854.6h0M317.9 854.1h0M318.4 864.9h0M318.8 880.2h0M319.3 921.0h0M319.8 915.3h0M320.2 936.9h0M320.7 927.1h0M321.2 927.1h0M321.6 938.0h0M322.1 907.3h0M322.6 882.9h0M323.0 893.6h0M323.5 866.0h0M324.0 849.6h0M324.4 848.6h0M324.9 833.6h0M325.4 824.3h0M325.8 829.9h0M326.3 826.3h0M326.8 832.8h0M327.2 828.3h0M327.7 824.0h0M328.2 832.8h0M328.6 839.3h0M329.1 861.5h0M329.6 864.3h0M330.0 877.0h0M330.5 874.5h0M331.0 915.3h0M331.4 921.0h0M331.9 931.3h0M332.4 955.6h0M332.8 950.2h0M333.3 942.7h0M333.8 948.9h0M334.2 945.2h0M334.7 927.1h0M335.2 910.8h0M335.6 893.6h0M336.1 862.1h0M336.6 848.6h0M337.1 843.8h0M337.5 848.6h0M338.0 844.3h0M338.5 826.7h0M338.9 842.9h0M339.4 843.3h0M339.9 831.5h0M340.3 848.1h0M340.8 843.8h0M341.3 858.3h0M341.7 875.1h0M342.2 888.5h0M342.7 914.4h0M343.1 929.2h0M343.6 941.5h0M344.1 947.7h0M344.5 980.1h0M345.0 961.2h0M345.5 973.4h0M345.9 965.6h0M346.4 959.7h0M346.9 961.2h0M347.3 925.0h0M347.8 895.9h0M348.3 896.7h0M348.7 889.2h0M349.2 859.3h0M349.7 868.4h0M350.1 845.7h0M350.6 842.9h0M351.1 834.9h0M351.5 842.0h0M352.0 837.1h0M352.5 839.3h0M352.9 859.9h0M353.4 864.9h0M353.9 869.0h0M354.3 889.2h0M354.8 888.5h0M355.3 922.0h0M355.7 936.9h0M356.2 961.2h0M356.7 976.7h0M357.1 997.0h0M357.6 997.0h0M358.1 1005.5h0M358.5 961.2h0M359.0 956.9h0M359.5 936.9h0M360.0 897.5h0M360.4 903.9h0M360.9 892.9h0M361.4 874.5h0M361.8 853.6h0M362.3 859.9h0M362.8 851.0h0M363.2 852.5h0M363.7 830.7h0M364.2 835.8h0M364.6 847.6h0M365.1 840.2h0M365.6 849.1h0M366.0 889.2h0M366.5 879.6h0M367.0 893.6h0M367.4 907.3h0M367.9 945.2h0M368.4 946.4h0M368.8 951.5h0M369.3 985.4h0M369.8 1007.7h0M370.2 1007.7h0M370.7 1012.3h0M371.2 983.6h0M371.6 973.4h0M372.1 938.0h0M372.6 909.0h0M373.0 878.3h0M373.5 890.7h0M374.0 864.9h0M374.4 855.1h0M374.9 847.6h0M375.4 846.2h0M375.8 831.5h0M376.3 831.5h0M376.8 830.3h0M377.2 841.5h0M377.7 844.3h0M378.2 856.7h0M378.6 877.6h0M379.1 879.6h0M379.6 895.9h0M380.0 923.0h0M380.5 935.7h0M381.0 951.5h0M381.5 954.2h0M381.9 981.8h0M382.4 987.3h0M382.9 989.1h0M383.3 961.2h0M383.8 964.1h0M384.3 952.9h0M384.7 919.1h0M385.2 901.4h0M385.7 889.9h0M386.1 863.8h0M386.6 852.0h0M387.1 837.1h0M387.5 821.7h0M388.0 827.9h0M388.5 827.5h0M388.9 836.2h0M389.4 843.8h0M389.9 834.5h0M390.3 834.9h0M390.8 854.1h0M391.3 852.5h0M391.7 887.1h0M392.2 887.8h0M392.7 928.1h0M393.1 910.8h0M393.6 940.3h0M394.1 958.3h0M394.5 962.6h0M395.0 1007.7h0M395.5 980.1h0M395.9 970.2h0M396.4 936.9h0M396.9 904.7h0M397.3 896.7h0M397.8 866.0h0M398.3 854.1h0M398.7 840.2h0M399.2 813.0h0M399.7 807.0h0M400.1 816.2h0M400.6 805.3h0M401.1 797.9h0M401.5 797.3h0M402.0 795.0h0M402.5 805.7h0M402.9 809.3h0M403.4 817.3h0M403.9 835.3h0M404.4 836.2h0M404.8 856.7h0M405.3 867.2h0M405.8 880.9h0M406.2 927.1h0M406.7 928.1h0M407.2 933.5h0M407.6 924.0h0M408.1 915.3h0M408.6 896.7h0M409.0 864.9h0M409.5 852.0h0M410.0 823.2h0M410.4 800.0h0M410.9 777.6h0M411.4 757.9h0M411.8 745.3h0M412.3 734.7h0M412.8 732.6h0M413.2 729.1h0M413.7 720.7h0M414.2 716.0h0M414.6 719.0h0M415.1 722.7h0M415.6 724.6h0M416.0 725.1h0M416.5 735.5h0M417.0 745.1h0M417.4 756.7h0M417.9 772.1h0M418.4 792.9h0M418.8 806.6h0M419.3 825.1h0M419.8 809.6h0M420.2 813.0h0M420.7 802.8h0M421.2 784.7h0M421.6 749.9h0M422.1 724.0h0M422.6 694.2h0M423.0 672.6h0M423.5 642.5h0M424.0 619.9h0M424.4 600.7h0M424.9 584.3h0M425.4 568.1h0M425.9 556.2h0M426.3 538.6h0M426.8 529.0h0M427.3 519.1h0M427.7 507.3h0M428.2 497.7h0M428.7 493.7h0M429.1 488.9h0M429.6 483.9h0M430.1 478.4h0M430.5 474.2h0M431.0 470.9h0M431.5 469.0h0M431.9 469.6h0M432.4 470.7h0M432.9 470.7h0M433.3 475.3h0M433.8 478.3h0M434.3 482.7h0M434.7 485.7h0M435.2 491.1h0M435.7 496.6h0M436.1 508.0h0M436.6 515.4h0M437.1 526.0h0M437.5 534.8h0M438.0 545.1h0M438.5 558.7h0M438.9 570.0h0M439.4 584.8h0M439.9 604.4h0M440.3 625.9h0M440.8 643.0h0M441.3 662.1h0M441.7 685.7h0M442.2 713.2h0M442.7 737.7h0M443.1 762.1h0M443.6 807.0h0M444.1 835.3h0M444.5 859.3h0M445.0 919.1h0M445.5 906.4h0M445.9 931.3h0M446.4 939.2h0M446.9 959.7h0M447.3 886.4h0M447.8 911.7h0M448.3 916.2h0M448.8 867.8h0M449.2 878.3h0M449.7 864.9h0M450.2 857.7h0M450.6 862.6h0M451.1 870.8h0M451.6 862.6h0M452.0 889.2h0M452.5 892.1h0M453.0 892.9h0M453.4 909.9h0M453.9 936.9h0M454.4 940.3h0M454.8 970.2h0M455.3 981.8h0M455.8 991.0h0M456.2 1014.7h0M456.7 1036.1h0M457.2 1066.9h0M457.6 1030.3h0M458.1 1030.3h0M458.6 1042.2h0M459.0 1045.4h0M459.5 1033.1h0M460.0 1005.5h0M460.4 1007.7h0M460.9 1039.1h0M461.4 999.0h0M461.8 1001.1h0M462.3 999.0h0M462.8 980.1h0M463.2 1005.5h0M463.7 989.1h0M464.2 1024.8h0M464.6 1007.7h0M465.1 1005.5h0M465.6 1010.0h0M466.0 1063.0h0M466.5 1075.2h0M467.0 1111.0h0M467.4 1084.3h0M467.9 1105.1h0M468.4 1138.9h0M468.8 1131.2h0M469.3 1124.0h0M470.3 1147.2h0M470.7 1166.1h0M471.2 1166.1h0M472.1 1131.2h0M472.6 1105.1h0M473.1 1094.2h0M473.5 1071.0h0M474.0 1071.0h0M474.5 1089.1h0M474.9 1089.1h0M475.4 1066.9h0M475.9 1071.0h0M476.3 1055.6h0M476.8 1105.1h0M477.3 1111.0h0M477.7 1079.6h0M478.2 1111.0h0M478.7 1111.0h0M479.1 1111.0h0M479.6 1166.1h0M480.1 1189.3h0M484.7 1177.1h0M486.6 1124.0h0M487.1 1147.2h0M487.5 1156.2h0M488.5 1189.3h0M488.9 1156.2h0M489.9 1166.1h0M490.3 1189.3h0M490.8 1189.3h0M491.3 1177.1h0M496.4 1189.3h0M497.8 1177.1h0M498.8 1156.2h0M500.6 1166.1h0M502.0 1189.3h0M584.3 1166.1h0M585.2 1189.3h0M586.2 1189.3h0M587.6 1166.1h0M588.5 1147.2h0M595.5 1177.1h0M596.0 1177.1h0M597.4 1156.2h0M597.8 1166.1h0M598.8 1138.9h0M601.1 1156.2h0M607.2 1166.1h0M607.7 1189.3h0M608.1 1177.1h0M609.1 1166.1h0M609.5 1177.1h0M610.5 1166.1h0M610.9 1147.2h0M611.4 1111.0h0M611.9 1156.2h0M612.3 1177.1h0M612.8 1166.1h0M614.2 1156.2h0M614.7 1131.2h0M615.1 1189.3h0M615.6 1166.1h0M616.1 1189.3h0M617.5 1189.3h0M618.9 1189.3h0M621.2 1189.3h0M621.7 1147.2h0M622.1 1147.2h0M622.6 1111.0h0M623.1 1117.3h0M623.5 1124.0h0M624.0 1111.0h0M624.5 1071.0h0M624.9 1111.0h0M625.4 1111.0h0M625.9 1131.2h0M626.4 1124.0h0M626.8 1124.0h0M627.3 1138.9h0M627.8 1147.2h0M628.2 1124.0h0M629.6 1189.3h0M630.1 1177.1h0M630.6 1189.3h0M631.5 1166.1h0M632.4 1177.1h0M632.9 1177.1h0M634.3 1094.2h0M634.8 1084.3h0M635.2 1084.3h0M635.7 1131.2h0M636.2 1099.5h0M636.6 1071.0h0M637.1 1084.3h0M637.6 1079.6h0M638.0 1079.6h0M638.5 1066.9h0M639.0 1094.2h0M639.4 1089.1h0M639.9 1089.1h0M640.4 1105.1h0M640.8 1099.5h0M641.3 1138.9h0M642.2 1156.2h0M642.7 1156.2h0M643.2 1124.0h0M644.6 1084.3h0M645.0 1138.9h0M645.5 1099.5h0M646.0 1124.0h0M646.4 1059.2h0M646.9 1027.5h0M647.4 1033.1h0M647.9 1030.3h0M648.3 999.0h0M648.8 1012.3h0M649.3 976.7h0M649.7 1017.1h0M650.2 973.4h0M650.7 1019.6h0M651.1 999.0h0M651.6 1007.7h0M652.1 981.8h0M652.5 985.4h0M653.0 1022.2h0M653.5 1039.1h0M653.9 1030.3h0M654.4 1022.2h0M654.9 1059.2h0M655.3 1094.2h0M655.8 1111.0h0M656.3 1079.6h0M656.7 1117.3h0M657.2 1036.1h0M657.7 1042.2h0M658.1 1017.1h0M658.6 975.0h0M659.1 962.6h0M659.5 940.3h0M660.0 956.9h0M660.5 907.3h0M660.9 903.9h0M661.4 887.1h0M661.9 881.6h0M662.3 882.2h0M662.8 889.2h0M663.3 870.8h0M663.7 880.9h0M664.2 869.6h0M664.7 879.6h0M665.1 883.6h0M665.6 903.1h0M666.1 895.9h0M666.5 895.1h0M667.0 946.4h0M667.5 927.1h0M667.9 952.9h0M668.4 941.5h0M668.9 954.2h0M669.3 947.7h0M669.8 921.0h0M670.3 905.6h0M670.8 872.0h0M671.2 863.2h0M671.7 828.3h0M672.2 800.9h0M672.6 790.7h0M673.1 762.5h0M673.6 738.5h0M674.0 726.4h0M674.5 708.6h0M675.0 690.8h0M675.4 681.9h0M675.9 662.0h0M676.4 655.6h0M676.8 641.9h0M677.3 634.5h0M677.8 628.3h0M678.2 626.7h0M678.7 616.6h0M679.2 611.4h0M679.6 602.7h0M680.1 605.6h0M680.6 600.4h0M681.0 602.6h0M681.5 600.7h0M682.0 597.7h0M682.4 600.1h0M682.9 601.5h0M683.4 606.1h0M683.8 607.6h0M684.3 614.0h0M684.8 615.5h0M685.2 623.4h0M685.7 629.6h0M686.2 638.0h0M686.6 651.0h0M687.1 656.7h0M687.6 668.2h0M688.0 680.6h0M688.5 693.0h0M689.0 710.2h0M689.4 724.8h0M689.9 752.6h0M690.4 767.3h0M690.8 789.9h0M691.3 814.8h0M691.8 836.2h0M692.3 861.5h0M692.7 895.9h0M693.2 913.5h0M693.7 923.0h0M694.1 981.8h0M694.6 965.6h0M695.1 1012.3h0M695.5 993.0h0M696.0 1022.2h0M696.5 1005.5h0M696.9 995.0h0M697.4 975.0h0M697.9 1010.0h0M698.3 962.6h0M698.8 971.8h0M699.3 950.2h0M699.7 976.7h0M700.2 987.3h0M700.7 980.1h0M701.1 964.1h0M701.6 976.7h0M702.1 980.1h0M702.5 1027.5h0M703.0 1003.3h0M703.5 1033.1h0M703.9 1036.1h0M704.4 1075.2h0M704.9 1105.1h0M705.3 1131.2h0M705.8 1105.1h0M706.3 1105.1h0M706.7 1124.0h0M707.2 1177.1h0M707.7 1166.1h0M708.1 1089.1h0M708.6 1111.0h0M709.1 1048.7h0M709.5 1045.4h0M710.0 1079.6h0M710.5 1094.2h0M710.9 1039.1h0M711.4 1084.3h0M711.9 1063.0h0M712.3 1042.2h0M712.8 1066.9h0M713.3 1055.6h0M713.7 1079.6h0M714.2 1071.0h0M714.7 1131.2h0M715.2 1177.1h0M715.6 1147.2h0M716.1 1105.1h0M716.6 1156.2h0M717.0 1177.1h0M718.0 1156.2h0M718.4 1131.2h0M718.9 1189.3h0M719.4 1147.2h0M720.3 1177.1h0M720.8 1189.3h0M722.2 1131.2h0M722.6 1166.1h0M723.1 1099.5h0M724.0 1111.0h0M724.5 1111.0h0M725.0 1111.0h0M725.4 1138.9h0M725.9 1124.0h0M726.4 1177.1h0M727.3 1147.2h0M728.7 1147.2h0M729.2 1189.3h0M735.2 1156.2h0M736.2 1189.3h0M736.7 1138.9h0M738.1 1166.1h0M745.5 1177.1h0M747.9 1177.1h0M749.7 1166.1h0M763.3 1189.3h0M773.1 1189.3h0M786.2 1166.1h0M787.1 1177.1h0M798.8 1177.1h0M800.7 1166.1h0M822.6 1189.3h0M847.4 1166.1h0M848.8 1147.2h0M849.3 1189.3h0M851.6 1189.3h0M870.3 1189.3h0M874.1 1189.3h0M875.5 1189.3h0M875.9 1138.9h0M877.8 1166.1h0M883.9 1189.3h0M884.8 1177.1h0M887.1 1124.0h0M887.6 1166.1h0M888.1 1166.1h0M889.0 1189.3h0M889.5 1166.1h0M890.9 1189.3h0M893.7 1177.1h0M895.1 1189.3h0M895.6 1156.2h0M897.4 1156.2h0M899.3 1138.9h0M899.8 1189.3h0M900.2 1117.3h0M900.7 1089.1h0M901.2 1147.2h0M901.6 1147.2h0M902.1 1124.0h0M902.6 1131.2h0M903.0 1166.1h0M903.5 1177.1h0M905.4 1189.3h0M905.8 1189.3h0M906.3 1166.1h0M907.2 1156.2h0M908.2 1166.1h0M908.6 1156.2h0M909.1 1111.0h0M909.6 1138.9h0M910.0 1117.3h0M910.5 1105.1h0M911.0 1079.6h0M911.4 1117.3h0M911.9 1071.0h0M912.4 1036.1h0M912.8 1055.6h0M913.3 1022.2h0M913.8 1052.1h0M914.3 1075.2h0M914.7 1089.1h0M915.2 1010.0h0M915.7 1024.8h0M916.1 1071.0h0M916.6 1066.9h0M917.1 1117.3h0M917.5 1105.1h0M918.0 1131.2h0M918.5 1131.2h0M918.9 1094.2h0M919.4 1075.2h0M919.9 1117.3h0M920.3 1071.0h0M920.8 1075.2h0M921.3 1048.7h0M921.7 1033.1h0M922.2 1014.7h0M922.7 985.4h0M923.1 973.4h0M923.6 955.6h0M924.1 932.4h0M924.5 921.0h0M925.0 899.8h0M925.5 888.5h0M925.9 877.6h0M926.4 866.6h0M926.9 875.1h0M927.3 839.7h0M927.8 826.3h0M928.3 838.8h0M928.7 829.9h0M929.2 817.6h0M929.7 808.3h0M930.1 824.7h0M930.6 817.6h0M931.1 807.0h0M931.5 807.6h0M932.0 806.0h0M932.5 807.3h0M932.9 812.3h0M933.4 816.9h0M933.9 816.2h0M934.3 837.5h0M934.8 829.9h0M935.3 835.3h0M935.7 839.7h0M936.2 834.0h0M936.7 863.8h0M937.2 855.6h0M937.6 878.3h0M938.1 899.0h0M938.6 899.0h0M939.0 923.0h0M939.5 924.0h0M940.0 967.1h0M940.4 954.2h0M940.9 995.0h0M941.4 1001.1h0M941.8 1014.7h0M942.3 1059.2h0M942.8 1033.1h0M943.2 1045.4h0M943.7 1105.1h0M944.2 1147.2h0M944.6 1147.2h0M945.1 1138.9h0M945.6 1177.1h0M946.5 1177.1h0M948.8 1156.2h0M950.2 1166.1h0M951.2 1138.9h0M951.6 1177.1h0M952.1 1177.1h0M952.6 1189.3h0M1166.6 1189.3h0M1174.1 1156.2h0M1174.6 1124.0h0M1175.0 1117.3h0M1175.5 1156.2h0M1176.0 1177.1h0M1176.4 1111.0h0M1176.9 1105.1h0M1177.4 1063.0h0M1177.8 1099.5h0M1178.3 1039.1h0M1178.8 1014.7h0M1179.2 1039.1h0M1179.7 1039.1h0M1180.2 1036.1h0M1180.7 1048.7h0M1181.1 1010.0h0M1181.6 1036.1h0M1182.1 1027.5h0M1182.5 1030.3h0M1183.0 1022.2h0M1183.5 1033.1h0M1183.9 1003.3h0M1184.4 976.7h0M1184.9 1007.7h0M1185.3 993.0h0M1185.8 1045.4h0M1186.3 999.0h0M1186.7 1063.0h0M1187.2 1045.4h0M1187.7 1039.1h0M1188.1 1042.2h0M1188.6 1036.1h0M1189.1 1084.3h0M1189.5 1089.1h0M1190.0 1111.0h0M1190.5 1079.6h0M1190.9 1138.9h0M1191.4 1099.5h0M1191.9 1147.2h0M1192.3 1156.2h0M1193.7 1177.1h0M1427.9 1189.3h0M1430.7 1177.1h0M1431.2 1177.1h0M1432.1 1177.1h0M1432.6 1189.3h0M1433.5 1189.3h0M1434.0 1189.3h0M1434.4 1177.1h0M1434.9 1189.3h0M1435.4 1166.1h0M1436.8 1177.1h0M1437.2 1189.3h0M1438.2 1189.3h0M1439.1 1189.3h0M1440.0 1166.1h0" fill="none" stroke="{data}" stroke-width="6"
        stroke-linecap="round" opacity=".8"/>
  <rect width="1480" height="1200" fill="url(#vign)"/>
  <rect width="1480" height="40" fill="url(#topfade)"/>
  <!-- darkens the cropped bottom edge, where the copyright line sits -->
  <rect y="1030" width="1480" height="170" fill="url(#botfade)"/>
  <!-- the handwritten note, above the vignette so it stays bright -->
  <text font-family="'Ink Free','Segoe Print','Comic Sans MS',cursive" font-size="104"
        fill="#f2f4f5" opacity=".94" transform="rotate(-4 700 215)"><tspan x="700" y="215">make the line</tspan><tspan x="730" y="329">hit the dots!</tspan></text>
</svg>
