<?xml version="1.0" encoding="utf-8" standalone="no"?>
<!DOCTYPE svg PUBLIC "-//W3C//DTD SVG 1.1//EN"
  "http://www.w3.org/Graphics/SVG/1.1/DTD/svg11.dtd">
<svg xmlns:xlink="http://www.w3.org/1999/xlink" width="385.511811pt" height="244.8pt" viewBox="0 0 385.511811 244.8" xmlns="http://www.w3.org/2000/svg" version="1.1">
 <title>Figure 6-2: evenly spaced orders against refraction</title>
 <metadata>
  <rdf:RDF xmlns:dc="http://purl.org/dc/elements/1.1/" xmlns:cc="http://creativecommons.org/ns#" xmlns:rdf="http://www.w3.org/1999/02/22-rdf-syntax-ns#">
   <cc:Work>
    <dc:type rdf:resource="http://purl.org/dc/dcmitype/StillImage"/>
    <dc:title>Figure 6-2: evenly spaced orders against refraction</dc:title>
    <dc:date>2026-09-25T17:33:58.440587</dc:date>
    <dc:description>Reflectivity calculated by the X-Ray Calc 3.9.4.1250 engine (figures-src/ch6/). Script: scripts/figures/fig_6_figures.py</dc:description>
    <dc:format>image/svg+xml</dc:format>
    <dc:creator>
     <cc:Agent>
      <dc:title>Matplotlib v3.10.8, https://matplotlib.org/</dc:title>
     </cc:Agent>
    </dc:creator>
   </cc:Work>
  </rdf:RDF>
 </metadata>
 <defs>
  <style type="text/css">*{stroke-linejoin: round; stroke-linecap: butt}</style>
 </defs>
 <g id="figure_1">
  <g id="patch_1">
   <path d="M 0 244.8 
L 385.511811 244.8 
L 385.511811 0 
L 0 0 
z
" style="fill: #ffffff"/>
  </g>
  <g id="axes_1">
   <g id="patch_2">
    <path d="M 42.406299 210.528 
L 373.946457 210.528 
L 373.946457 7.344 
L 42.406299 7.344 
z
" style="fill: #ffffff"/>
   </g>
   <g id="matplotlib.axis_1">
    <g id="xtick_1">
     <g id="line2d_1">
      <defs>
       <path id="mf7dcf5069d" d="M 0 0 
L 0 3.5 
" style="stroke: #334155; stroke-width: 0.8"/>
      </defs>
      <g>
       <use xlink:href="#mf7dcf5069d" x="42.406299" y="210.528" style="fill: #334155; stroke: #334155; stroke-width: 0.8"/>
      </g>
     </g>
     <g id="text_1">
      <text style="font-size: 9px; font-family: 'DejaVu Sans', 'Bitstream Vera Sans', 'Computer Modern Sans Serif', 'Lucida Grande', 'Verdana', 'Geneva', 'Lucid', 'Arial', 'Helvetica', 'Avant Garde', sans-serif; text-anchor: middle; fill: #334155" x="42.406299" y="224.366594" transform="rotate(-0 42.406299 224.366594)">0</text>
     </g>
    </g>
    <g id="xtick_2">
     <g id="line2d_2">
      <g>
       <use xlink:href="#mf7dcf5069d" x="86.030004" y="210.528" style="fill: #334155; stroke: #334155; stroke-width: 0.8"/>
      </g>
     </g>
     <g id="text_2">
      <text style="font-size: 9px; font-family: 'DejaVu Sans', 'Bitstream Vera Sans', 'Computer Modern Sans Serif', 'Lucida Grande', 'Verdana', 'Geneva', 'Lucid', 'Arial', 'Helvetica', 'Avant Garde', sans-serif; text-anchor: middle; fill: #334155" x="86.030004" y="224.366594" transform="rotate(-0 86.030004 224.366594)">1</text>
     </g>
    </g>
    <g id="xtick_3">
     <g id="line2d_3">
      <g>
       <use xlink:href="#mf7dcf5069d" x="129.653709" y="210.528" style="fill: #334155; stroke: #334155; stroke-width: 0.8"/>
      </g>
     </g>
     <g id="text_3">
      <text style="font-size: 9px; font-family: 'DejaVu Sans', 'Bitstream Vera Sans', 'Computer Modern Sans Serif', 'Lucida Grande', 'Verdana', 'Geneva', 'Lucid', 'Arial', 'Helvetica', 'Avant Garde', sans-serif; text-anchor: middle; fill: #334155" x="129.653709" y="224.366594" transform="rotate(-0 129.653709 224.366594)">2</text>
     </g>
    </g>
    <g id="xtick_4">
     <g id="line2d_4">
      <g>
       <use xlink:href="#mf7dcf5069d" x="173.277414" y="210.528" style="fill: #334155; stroke: #334155; stroke-width: 0.8"/>
      </g>
     </g>
     <g id="text_4">
      <text style="font-size: 9px; font-family: 'DejaVu Sans', 'Bitstream Vera Sans', 'Computer Modern Sans Serif', 'Lucida Grande', 'Verdana', 'Geneva', 'Lucid', 'Arial', 'Helvetica', 'Avant Garde', sans-serif; text-anchor: middle; fill: #334155" x="173.277414" y="224.366594" transform="rotate(-0 173.277414 224.366594)">3</text>
     </g>
    </g>
    <g id="xtick_5">
     <g id="line2d_5">
      <g>
       <use xlink:href="#mf7dcf5069d" x="216.901119" y="210.528" style="fill: #334155; stroke: #334155; stroke-width: 0.8"/>
      </g>
     </g>
     <g id="text_5">
      <text style="font-size: 9px; font-family: 'DejaVu Sans', 'Bitstream Vera Sans', 'Computer Modern Sans Serif', 'Lucida Grande', 'Verdana', 'Geneva', 'Lucid', 'Arial', 'Helvetica', 'Avant Garde', sans-serif; text-anchor: middle; fill: #334155" x="216.901119" y="224.366594" transform="rotate(-0 216.901119 224.366594)">4</text>
     </g>
    </g>
    <g id="xtick_6">
     <g id="line2d_6">
      <g>
       <use xlink:href="#mf7dcf5069d" x="260.524824" y="210.528" style="fill: #334155; stroke: #334155; stroke-width: 0.8"/>
      </g>
     </g>
     <g id="text_6">
      <text style="font-size: 9px; font-family: 'DejaVu Sans', 'Bitstream Vera Sans', 'Computer Modern Sans Serif', 'Lucida Grande', 'Verdana', 'Geneva', 'Lucid', 'Arial', 'Helvetica', 'Avant Garde', sans-serif; text-anchor: middle; fill: #334155" x="260.524824" y="224.366594" transform="rotate(-0 260.524824 224.366594)">5</text>
     </g>
    </g>
    <g id="xtick_7">
     <g id="line2d_7">
      <g>
       <use xlink:href="#mf7dcf5069d" x="304.148529" y="210.528" style="fill: #334155; stroke: #334155; stroke-width: 0.8"/>
      </g>
     </g>
     <g id="text_7">
      <text style="font-size: 9px; font-family: 'DejaVu Sans', 'Bitstream Vera Sans', 'Computer Modern Sans Serif', 'Lucida Grande', 'Verdana', 'Geneva', 'Lucid', 'Arial', 'Helvetica', 'Avant Garde', sans-serif; text-anchor: middle; fill: #334155" x="304.148529" y="224.366594" transform="rotate(-0 304.148529 224.366594)">6</text>
     </g>
    </g>
    <g id="xtick_8">
     <g id="line2d_8">
      <g>
       <use xlink:href="#mf7dcf5069d" x="347.772234" y="210.528" style="fill: #334155; stroke: #334155; stroke-width: 0.8"/>
      </g>
     </g>
     <g id="text_8">
      <text style="font-size: 9px; font-family: 'DejaVu Sans', 'Bitstream Vera Sans', 'Computer Modern Sans Serif', 'Lucida Grande', 'Verdana', 'Geneva', 'Lucid', 'Arial', 'Helvetica', 'Avant Garde', sans-serif; text-anchor: middle; fill: #334155" x="347.772234" y="224.366594" transform="rotate(-0 347.772234 224.366594)">7</text>
     </g>
    </g>
    <g id="text_9">
     <text style="font-size: 9px; font-family: 'DejaVu Sans', 'Bitstream Vera Sans', 'Computer Modern Sans Serif', 'Lucida Grande', 'Verdana', 'Geneva', 'Lucid', 'Arial', 'Helvetica', 'Avant Garde', sans-serif; text-anchor: middle; fill: #334155" x="208.176378" y="237.076906" transform="rotate(-0 208.176378 237.076906)">2θ (°)</text>
    </g>
   </g>
   <g id="matplotlib.axis_2">
    <g id="ytick_1">
     <g id="line2d_9">
      <defs>
       <path id="m3cee1dc14e" d="M 0 0 
L -3.5 0 
" style="stroke: #334155; stroke-width: 0.8"/>
      </defs>
      <g>
       <use xlink:href="#m3cee1dc14e" x="42.406299" y="210.528" style="fill: #334155; stroke: #334155; stroke-width: 0.8"/>
      </g>
     </g>
     <g id="text_10">
      <!-- $\mathdefault{10^{-8}}$ -->
      <g style="fill: #334155" transform="translate(14.256299 213.947297)">
       <text>
        <tspan x="0" y="-0.873438" style="font-size: 9px; font-family: 'DejaVu Sans'; fill: #334155">1</tspan>
        <tspan x="5.726074" y="-0.873438" style="font-size: 9px; font-family: 'DejaVu Sans'; fill: #334155">0</tspan>
        <tspan x="11.538281" y="-4.31875" style="font-size: 6.3px; font-family: 'DejaVu Sans'; fill: #334155">−</tspan>
        <tspan x="16.816992" y="-4.31875" style="font-size: 6.3px; font-family: 'DejaVu Sans'; fill: #334155">8</tspan>
       </text>
      </g>
     </g>
    </g>
    <g id="ytick_2">
     <g id="line2d_10">
      <g>
       <use xlink:href="#m3cee1dc14e" x="42.406299" y="173.585455" style="fill: #334155; stroke: #334155; stroke-width: 0.8"/>
      </g>
     </g>
     <g id="text_11">
      <!-- $\mathdefault{10^{-6}}$ -->
      <g style="fill: #334155" transform="translate(14.256299 177.004751)">
       <text>
        <tspan x="0" y="-0.873438" style="font-size: 9px; font-family: 'DejaVu Sans'; fill: #334155">1</tspan>
        <tspan x="5.726074" y="-0.873438" style="font-size: 9px; font-family: 'DejaVu Sans'; fill: #334155">0</tspan>
        <tspan x="11.538281" y="-4.31875" style="font-size: 6.3px; font-family: 'DejaVu Sans'; fill: #334155">−</tspan>
        <tspan x="16.816992" y="-4.31875" style="font-size: 6.3px; font-family: 'DejaVu Sans'; fill: #334155">6</tspan>
       </text>
      </g>
     </g>
    </g>
    <g id="ytick_3">
     <g id="line2d_11">
      <g>
       <use xlink:href="#m3cee1dc14e" x="42.406299" y="136.642909" style="fill: #334155; stroke: #334155; stroke-width: 0.8"/>
      </g>
     </g>
     <g id="text_12">
      <!-- $\mathdefault{10^{-4}}$ -->
      <g style="fill: #334155" transform="translate(14.256299 140.062206)">
       <text>
        <tspan x="0" y="-0.960938" style="font-size: 9px; font-family: 'DejaVu Sans'; fill: #334155">1</tspan>
        <tspan x="5.726074" y="-0.960938" style="font-size: 9px; font-family: 'DejaVu Sans'; fill: #334155">0</tspan>
        <tspan x="11.538281" y="-4.40625" style="font-size: 6.3px; font-family: 'DejaVu Sans'; fill: #334155">−</tspan>
        <tspan x="16.816992" y="-4.40625" style="font-size: 6.3px; font-family: 'DejaVu Sans'; fill: #334155">4</tspan>
       </text>
      </g>
     </g>
    </g>
    <g id="ytick_4">
     <g id="line2d_12">
      <g>
       <use xlink:href="#m3cee1dc14e" x="42.406299" y="99.700364" style="fill: #334155; stroke: #334155; stroke-width: 0.8"/>
      </g>
     </g>
     <g id="text_13">
      <!-- $\mathdefault{10^{-2}}$ -->
      <g style="fill: #334155" transform="translate(14.256299 103.119661)">
       <text>
        <tspan x="0" y="-0.873438" style="font-size: 9px; font-family: 'DejaVu Sans'; fill: #334155">1</tspan>
        <tspan x="5.726074" y="-0.873438" style="font-size: 9px; font-family: 'DejaVu Sans'; fill: #334155">0</tspan>
        <tspan x="11.538281" y="-4.31875" style="font-size: 6.3px; font-family: 'DejaVu Sans'; fill: #334155">−</tspan>
        <tspan x="16.816992" y="-4.31875" style="font-size: 6.3px; font-family: 'DejaVu Sans'; fill: #334155">2</tspan>
       </text>
      </g>
     </g>
    </g>
    <g id="ytick_5">
     <g id="line2d_13">
      <g>
       <use xlink:href="#m3cee1dc14e" x="42.406299" y="62.757818" style="fill: #334155; stroke: #334155; stroke-width: 0.8"/>
      </g>
     </g>
     <g id="text_14">
      <!-- $\mathdefault{10^{0}}$ -->
      <g style="fill: #334155" transform="translate(19.566299 66.177115)">
       <text>
        <tspan x="0" y="-0.873438" style="font-size: 9px; font-family: 'DejaVu Sans'; fill: #334155">1</tspan>
        <tspan x="5.726074" y="-0.873438" style="font-size: 9px; font-family: 'DejaVu Sans'; fill: #334155">0</tspan>
        <tspan x="11.538281" y="-4.31875" style="font-size: 6.3px; font-family: 'DejaVu Sans'; fill: #334155">0</tspan>
       </text>
      </g>
     </g>
    </g>
    <g id="text_15">
     <text style="font-size: 9px; font-family: 'DejaVu Sans', 'Bitstream Vera Sans', 'Computer Modern Sans Serif', 'Lucida Grande', 'Verdana', 'Geneva', 'Lucid', 'Arial', 'Helvetica', 'Avant Garde', sans-serif; text-anchor: middle; fill: #334155" x="8.38458" y="108.936" transform="rotate(-90 8.38458 108.936)">Reflectivity R</text>
    </g>
   </g>
   <g id="line2d_14">
    <path d="M 42.493547 62.757776 
L 49.603321 62.865461 
L 51.173582 62.900437 
L 55.011988 63.011199 
L 56.931187 63.101336 
L 58.632302 63.207233 
L 60.246178 63.361879 
L 61.074924 63.465519 
L 62.296231 63.680456 
L 62.776031 63.782623 
L 63.735639 64.092315 
L 63.997346 64.176752 
L 65.567599 65.328997 
L 66.570822 67.328641 
L 67.094236 69.219573 
L 67.13786 69.219573 
L 67.574045 71.009367 
L 67.61766 71.009367 
L 68.097459 72.841085 
L 68.141074 72.841085 
L 68.620874 74.44308 
L 68.664498 74.44308 
L 69.231536 76.156238 
L 69.275151 76.156238 
L 69.84219 77.613226 
L 69.885804 77.613226 
L 70.321989 78.67652 
L 70.409228 78.771133 
L 71.368827 80.689338 
L 71.456066 80.752386 
L 71.848627 81.54013 
L 72.197573 82.26864 
L 72.502904 82.480732 
L 72.764611 82.759049 
L 73.462503 84.095305 
L 73.855073 84.139607 
L 74.073157 84.634051 
L 74.465726 85.610005 
L 74.640195 85.654957 
L 75.119995 85.375878 
L 75.294472 85.741692 
L 75.817887 87.093293 
L 75.992364 86.829375 
L 76.34131 86.241744 
L 76.472164 86.371751 
L 76.690256 87.080693 
L 77.039202 88.243697 
L 77.170056 88.190887 
L 77.388148 87.526738 
L 77.693479 86.712535 
L 77.824333 86.758772 
L 77.998802 87.253062 
L 78.434986 89.063852 
L 78.478601 89.046302 
L 78.609464 88.719366 
L 79.176493 86.545635 
L 79.220117 86.589909 
L 79.394586 87.114863 
L 79.874385 89.32824 
L 79.918009 89.269481 
L 80.005239 88.751396 
L 80.615901 85.53705 
L 80.746755 85.766474 
L 81.226554 88.807289 
L 81.313793 88.791864 
L 81.401023 88.463869 
L 81.793593 84.384046 
L 82.0553 83.36584 
L 82.186154 83.618831 
L 82.317007 84.559115 
L 82.709577 87.233287 
L 82.753192 87.143052 
L 83.494699 79.565003 
L 83.625553 79.898463 
L 84.061737 84.014052 
L 84.192591 82.770348 
L 84.410683 78.001115 
L 84.585161 74.939845 
L 84.803253 73.548052 
L 84.934107 74.0676 
L 85.064961 75.915853 
L 85.195814 77.842702 
L 85.239438 77.649057 
L 85.326668 75.872027 
L 85.54476 67.747089 
L 85.806468 65.456879 
L 85.980945 65.09973 
L 86.155414 65.050121 
L 86.460745 65.213518 
L 86.940544 65.621483 
L 87.420344 66.091251 
L 87.812905 66.536814 
L 88.205475 67.03622 
L 88.467182 67.413943 
L 88.946982 68.265366 
L 89.208689 68.831876 
L 90.342766 73.277523 
L 90.691712 75.359191 
L 91.084281 77.167537 
L 91.913027 82.029208 
L 92.349203 83.067395 
L 92.698158 83.772682 
L 93.657757 88.118369 
L 93.788611 88.009027 
L 94.050318 87.702035 
L 94.181172 87.770683 
L 94.312034 88.02709 
L 94.704595 90.225296 
L 95.009926 91.993989 
L 95.184395 92.200622 
L 95.402487 91.690451 
L 95.838663 90.953588 
L 96.056756 91.587606 
L 96.754648 95.407605 
L 96.841886 95.311383 
L 96.929125 95.075741 
L 97.36531 93.482689 
L 97.496155 93.425755 
L 97.583402 93.550673 
L 97.888724 94.975299 
L 98.324909 97.867871 
L 98.412148 97.97146 
L 98.455763 97.934884 
L 98.543001 97.738736 
L 99.11004 95.425472 
L 99.240894 95.433866 
L 99.415362 96.007033 
L 100.113254 100.072922 
L 100.156878 100.006311 
L 100.244117 99.761578 
L 100.85477 96.992307 
L 100.942009 97.016846 
L 101.116477 97.541335 
L 101.814369 101.831689 
L 101.901608 101.701445 
L 102.20693 99.948291 
L 102.512261 98.377208 
L 102.643115 98.285336 
L 102.773969 98.524745 
L 103.035685 100.114652 
L 103.471861 103.254794 
L 103.559099 103.306657 
L 103.646329 103.06144 
L 104.344221 99.296541 
L 104.43146 99.33878 
L 104.562314 99.775034 
L 104.911268 102.282381 
L 105.216591 104.474321 
L 105.303829 104.528361 
L 105.478298 103.785406 
L 106.045336 100.095293 
L 106.176199 100.097137 
L 106.307044 100.524027 
L 106.612375 102.809846 
L 106.961321 105.497591 
L 107.004936 105.569903 
L 107.04856 105.542778 
L 107.223028 104.746222 
L 107.790067 100.656676 
L 107.877305 100.551153 
L 107.92092 100.575435 
L 108.051783 100.95354 
L 108.31349 102.736402 
L 108.749675 106.356813 
L 108.836905 106.306543 
L 108.967767 105.5693 
L 109.622035 100.763135 
L 109.709274 100.80359 
L 109.883743 101.36016 
L 110.145459 103.588857 
L 110.53802 106.897693 
L 110.625258 106.767138 
L 110.799727 105.411845 
L 111.32315 100.83314 
L 111.453995 100.60891 
L 111.497619 100.635353 
L 111.584858 100.840346 
L 111.933804 103.776483 
L 112.326365 107.138354 
L 112.413603 106.93697 
L 112.588072 105.393243 
L 113.111495 100.271754 
L 113.242349 100.020925 
L 113.285973 100.038321 
L 113.460441 100.740114 
L 113.722158 103.135613 
L 114.114719 106.957044 
L 114.201957 106.73533 
L 114.332802 105.312748 
L 114.899849 99.166015 
L 115.030694 98.825287 
L 115.074318 98.84148 
L 115.205172 99.195 
L 115.379649 100.561291 
L 115.903064 106.159195 
L 115.990302 105.843945 
L 116.208386 103.212415 
L 116.513717 98.577659 
L 116.819048 96.757728 
L 116.906278 96.751101 
L 116.993517 97.027234 
L 117.211609 98.525245 
L 117.691409 104.404158 
L 117.735032 104.36233 
L 117.865886 103.303106 
L 118.345686 95.15314 
L 118.651017 93.196054 
L 118.738247 93.175189 
L 118.825485 93.388054 
L 119.087193 95.75415 
L 119.523377 100.861228 
L 119.566992 100.504998 
L 119.697855 98.659466 
L 120.090416 90.175156 
L 120.439362 86.813856 
L 120.570215 86.621105 
L 120.657454 86.794124 
L 120.875547 88.6242 
L 121.224493 93.264193 
L 121.311731 92.780579 
L 121.442585 89.56899 
L 122.140468 73.110096 
L 122.533038 70.426626 
L 122.75113 69.910093 
L 122.969223 69.828862 
L 123.143691 69.981729 
L 123.536252 71.000224 
L 123.797968 72.151392 
L 124.059676 73.808113 
L 124.321383 76.173952 
L 124.888421 85.883989 
L 125.411836 94.234336 
L 125.499083 93.833314 
L 125.978883 91.27041 
L 126.022498 91.300607 
L 126.153352 91.711977 
L 126.415059 94.207935 
L 127.112951 106.583395 
L 127.20019 106.153617 
L 127.374667 103.875103 
L 127.810843 99.907051 
L 127.898082 99.79116 
L 127.941706 99.843928 
L 128.072559 100.317668 
L 128.334266 103.269279 
L 128.552359 107.178977 
L 128.901305 113.683911 
L 128.94492 113.810732 
L 128.988535 113.701802 
L 129.206627 110.659125 
L 129.511958 106.429899 
L 129.730051 105.327595 
L 129.817298 105.353937 
L 129.904545 105.626524 
L 130.1662 107.927985 
L 130.776932 118.492848 
L 130.864092 118.017907 
L 131.038587 115.367026 
L 131.387577 110.302608 
L 131.649232 109.213289 
L 131.736479 109.380039 
L 131.823727 109.77811 
L 132.085469 112.654422 
L 132.259876 115.654416 
L 132.608866 121.611443 
L 132.65249 121.641389 
L 132.783361 120.340699 
L 133.263134 113.149005 
L 133.481253 112.114457 
L 133.5685 112.156761 
L 133.655661 112.438791 
L 133.873779 114.22759 
L 134.309929 121.999152 
L 134.484424 123.845788 
L 134.571671 123.488094 
L 134.920661 117.791253 
L 135.225939 114.65583 
L 135.400434 114.274466 
L 135.531305 114.616691 
L 135.749337 116.525462 
L 135.923831 119.165146 
L 136.359981 125.382497 
L 136.447229 124.798394 
L 136.5781 122.937055 
L 136.970713 117.179348 
L 137.188744 115.991469 
L 137.275992 115.955004 
L 137.406863 116.397512 
L 137.537734 117.336896 
L 137.886636 122.381813 
L 138.192002 126.498185 
L 138.27925 126.251659 
L 138.453745 123.745266 
L 138.846271 118.357414 
L 139.064389 117.277858 
L 139.151549 117.277702 
L 139.28242 117.704127 
L 139.500539 119.807784 
L 139.675034 122.347554 
L 140.023936 127.289682 
L 140.06756 127.325616 
L 140.198431 126.428657 
L 140.852699 118.47018 
L 140.98357 118.250702 
L 141.070818 118.430586 
L 141.245313 119.434684 
L 141.506968 122.869588 
L 141.899494 127.967684 
L 141.943117 127.913266 
L 142.073989 126.690244 
L 142.248483 124.127271 
L 142.641097 119.497338 
L 142.815504 119.002189 
L 142.902752 119.085772 
L 143.033623 119.674401 
L 143.251741 121.873509 
L 143.775139 128.45414 
L 143.818762 128.341381 
L 143.949633 127.047099 
L 144.516654 119.960285 
L 144.691149 119.526247 
L 144.778309 119.666027 
L 144.952804 120.657831 
L 145.214546 123.831414 
L 145.607072 128.79514 
L 145.650696 128.768629 
L 145.781567 127.709436 
L 146.435836 119.994878 
L 146.566707 119.833691 
L 146.697578 120.187839 
L 146.915609 121.91363 
L 147.308222 127.796808 
L 147.482717 129.024988 
L 147.569877 128.655924 
L 147.744372 126.210661 
L 148.224146 120.362506 
L 148.398641 119.873505 
L 148.485888 119.962284 
L 148.616759 120.603306 
L 148.878501 123.276677 
L 149.314651 129.082447 
L 149.358275 129.045604 
L 149.489146 127.985031 
L 150.187038 119.735187 
L 150.274285 119.612557 
L 150.317822 119.65049 
L 150.448693 120.089676 
L 150.754059 123.394797 
L 151.190209 128.942605 
L 151.233832 128.813543 
L 151.408327 126.879353 
L 151.800853 120.759547 
L 152.062596 119.030189 
L 152.149843 118.933176 
L 152.193467 118.980382 
L 152.324338 119.52446 
L 152.542369 121.634373 
L 153.065854 128.440769 
L 153.109477 128.241457 
L 153.240261 126.505301 
L 153.850906 118.032779 
L 154.025401 117.60343 
L 154.112648 117.782349 
L 154.243519 118.543532 
L 154.461638 121.010284 
L 154.897787 127.417832 
L 154.985035 127.099091 
L 155.333937 120.509565 
L 155.726551 115.6071 
L 155.901045 115.128 
L 155.988206 115.2784 
L 156.119077 115.901189 
L 156.424443 119.991924 
L 156.773345 125.160717 
L 156.816969 124.992737 
L 156.94784 122.95715 
L 157.645732 110.644296 
L 157.820227 110.093056 
L 157.86385 110.118493 
L 157.951098 110.3912 
L 158.125505 111.701775 
L 158.343624 115.077155 
L 158.64899 119.412744 
L 158.73615 118.151007 
L 158.997892 110.15404 
L 159.564913 97.193357 
L 160.00115 92.997845 
L 160.306429 91.973591 
L 160.4373 91.951218 
L 160.611795 92.298383 
L 160.917073 94.026422 
L 161.178816 96.497609 
L 161.658589 104.85663 
L 161.920331 112.274594 
L 162.13845 120.983577 
L 162.487352 137.274666 
L 163.097997 123.257523 
L 163.185244 123.089638 
L 163.228868 123.118329 
L 163.359739 123.701839 
L 163.534234 125.496156 
L 163.883136 133.071523 
L 164.188502 148.330998 
L 164.406534 178.985019 
L 164.450157 168.53942 
L 164.7119 146.634158 
L 164.973555 140.299011 
L 165.235297 138.76304 
L 165.322544 138.886815 
L 165.453415 139.493049 
L 165.71507 142.478698 
L 166.06406 150.348351 
L 166.369426 163.977842 
L 166.587457 177.958538 
L 167.154478 151.898909 
L 167.547091 147.578275 
L 167.677962 147.358289 
L 167.721586 147.3961 
L 167.85237 147.907034 
L 168.070489 150.297582 
L 168.244983 153.897249 
L 168.419391 159.194678 
L 168.724757 169.832732 
L 168.942875 160.63896 
L 169.379025 149.473886 
L 169.684391 147.440032 
L 169.771639 147.462392 
L 169.902422 147.942094 
L 170.120541 149.979898 
L 170.643938 156.573329 
L 170.687562 156.507137 
L 170.818433 155.421773 
L 171.472701 147.586283 
L 171.69082 147.143217 
L 171.778067 147.257505 
L 171.996099 148.192561 
L 172.563207 151.440336 
L 172.650367 151.399182 
L 172.824862 150.754207 
L 173.522754 147.188525 
L 173.697249 147.084433 
L 173.871743 147.274892 
L 174.700507 148.822684 
L 174.744043 148.80049 
L 175.005785 148.439883 
L 175.921796 146.690011 
L 176.139827 146.6999 
L 176.357946 146.997004 
L 177.099461 148.436188 
L 177.273956 148.121301 
L 177.710106 146.422021 
L 178.015472 145.660179 
L 178.146343 145.673589 
L 178.320751 146.055427 
L 178.626116 147.551275 
L 178.975019 149.109274 
L 179.062266 149.135926 
L 179.193137 148.800707 
L 179.498503 146.894746 
L 179.891029 144.919397 
L 180.021901 144.799491 
L 180.065524 144.832131 
L 180.196395 145.151619 
L 180.414427 146.389786 
L 180.981535 150.158224 
L 181.112319 149.669156 
L 181.417685 146.856157 
L 181.766587 144.378842 
L 181.941082 144.069402 
L 182.071953 144.343944 
L 182.290071 145.701193 
L 182.857092 151.479118 
L 182.94434 151.328736 
L 183.118747 149.752706 
L 183.685856 143.662606 
L 183.860263 143.333978 
L 183.991134 143.663322 
L 184.165629 144.951253 
L 184.427371 148.371155 
L 184.73265 152.97251 
L 184.776274 153.133278 
L 184.819897 153.102585 
L 184.950768 151.942452 
L 185.474166 143.717257 
L 185.735908 142.416365 
L 185.823155 142.464727 
L 185.953939 143.037435 
L 186.128434 144.76024 
L 186.390176 149.429061 
L 186.695455 155.107812 
L 186.739079 155.082305 
L 186.86995 153.289812 
L 187.3061 143.809777 
L 187.611465 141.227496 
L 187.698713 141.079151 
L 187.742337 141.110534 
L 187.873208 141.63917 
L 188.047615 143.381477 
L 188.265734 147.469871 
L 188.658347 157.363722 
L 188.745507 156.10523 
L 189.268992 141.811002 
L 189.57427 139.076722 
L 189.661518 138.952723 
L 189.705142 138.99729 
L 189.836013 139.582196 
L 190.010507 141.456741 
L 190.228539 146.258339 
L 190.621152 158.916675 
L 190.664776 157.96203 
L 191.362668 136.856943 
L 191.624323 135.41341 
L 191.71157 135.522641 
L 191.842441 136.256148 
L 192.016936 138.389 
L 192.278591 145.70071 
L 192.583957 157.992142 
L 192.627581 156.253202 
L 193.150978 134.362229 
L 193.499968 130.018861 
L 193.630752 129.610522 
L 193.674375 129.623388 
L 193.761623 129.891803 
L 193.936117 131.349359 
L 194.19786 137.123937 
L 194.415891 147.101158 
L 194.546762 151.351905 
L 194.721257 141.788963 
L 195.026536 128.332895 
L 195.419149 121.221619 
L 195.680891 119.996392 
L 195.768051 120.188947 
L 195.898922 121.071784 
L 196.117041 124.890771 
L 196.335072 132.623594 
L 196.465943 137.322491 
L 196.509567 136.855416 
L 197.294706 104.458141 
L 197.818104 96.760502 
L 198.167093 94.322299 
L 198.428836 93.688879 
L 198.559619 93.720569 
L 198.690491 93.996119 
L 198.908609 94.941361 
L 199.257511 98.110183 
L 199.650125 104.658719 
L 200.042651 117.039655 
L 200.348017 128.702359 
L 200.391641 128.609872 
L 200.609672 122.644482 
L 200.915038 116.520187 
L 201.17678 115.162287 
L 201.264027 115.308569 
L 201.394811 116.060764 
L 201.569306 117.985599 
L 201.874672 124.780804 
L 202.267198 136.303135 
L 202.310822 135.934735 
L 202.485317 131.480185 
L 202.834219 123.712473 
L 203.052338 121.959583 
L 203.139585 121.820386 
L 203.183209 121.856767 
L 203.31408 122.357234 
L 203.488487 124.075736 
L 203.706606 127.916545 
L 204.186379 139.763271 
L 204.230003 139.315627 
L 204.971519 125.80309 
L 205.10239 125.643939 
L 205.233261 126.096136 
L 205.451292 128.334093 
L 205.756658 135.042406 
L 206.062024 141.843479 
L 206.105648 141.660999 
L 206.280055 138.002696 
L 206.672669 129.955239 
L 206.934324 128.159206 
L 207.021571 128.147622 
L 207.152442 128.636773 
L 207.370561 130.892985 
L 207.67584 137.429034 
L 207.981205 143.199895 
L 208.112077 141.125708 
L 208.59185 131.45512 
L 208.853592 129.86958 
L 208.94084 129.904095 
L 209.071624 130.501595 
L 209.289742 132.876992 
L 209.595021 139.397808 
L 209.856763 144.261045 
L 209.94401 143.454773 
L 210.641903 131.458067 
L 210.772774 131.084778 
L 210.816397 131.101612 
L 210.947268 131.57723 
L 211.1653 133.704722 
L 211.470666 139.997224 
L 211.732408 145.048386 
L 211.775944 145.01145 
L 211.906815 143.017807 
L 212.430213 133.164955 
L 212.648331 131.980295 
L 212.735579 131.994892 
L 212.86645 132.534418 
L 213.084568 134.869812 
L 213.389847 141.274381 
L 213.651589 145.750985 
L 213.738837 144.97617 
L 214.480352 132.710856 
L 214.611136 132.549186 
L 214.742007 132.994275 
L 214.960126 135.137127 
L 215.221781 140.398338 
L 215.527147 146.322086 
L 215.57077 146.225547 
L 215.701642 144.14882 
L 216.225039 134.064911 
L 216.443157 132.878363 
L 216.530405 132.904164 
L 216.661189 133.442343 
L 216.835683 135.244908 
L 217.097426 140.11858 
L 217.446328 146.811839 
L 217.533575 145.910126 
L 218.100596 134.389651 
L 218.362339 132.94376 
L 218.449586 133.019929 
L 218.623994 134.043034 
L 218.842112 136.974147 
L 219.321973 147.240378 
L 219.409133 146.633116 
L 219.714499 139.179678 
L 220.019865 134.049804 
L 220.237896 132.801496 
L 220.325144 132.793363 
L 220.456015 133.321435 
L 220.630509 135.077504 
L 220.892164 140.143409 
L 221.241154 147.556381 
L 221.284778 147.22927 
L 221.459185 143.056854 
L 221.895422 133.886516 
L 222.157077 132.324527 
L 222.244325 132.372005 
L 222.375196 132.94297 
L 222.636938 136.282567 
L 222.89868 142.900807 
L 223.116712 147.74263 
L 223.160335 147.613264 
L 223.291206 144.981806 
L 223.683733 134.835015 
L 223.989099 131.722081 
L 224.11997 131.50918 
L 224.250753 131.952638 
L 224.468872 134.294393 
L 224.686991 138.999179 
L 225.035893 147.780559 
L 225.079517 147.407141 
L 225.254011 142.662362 
L 225.690249 132.227498 
L 225.951903 130.308274 
L 226.039151 130.260905 
L 226.126398 130.485496 
L 226.344517 132.443231 
L 226.649796 139.284187 
L 226.955161 147.440772 
L 226.998785 146.965654 
L 227.740214 129.087928 
L 227.914708 128.367912 
L 228.001956 128.466897 
L 228.132827 129.168978 
L 228.350946 132.038935 
L 228.656224 140.792788 
L 228.874343 146.509425 
L 229.005214 142.735303 
L 229.354116 130.865686 
L 229.703106 126.025288 
L 229.877513 125.563674 
L 229.964761 125.787725 
L 230.095632 126.683234 
L 230.357374 131.082654 
L 230.7499 144.633685 
L 230.837148 143.53012 
L 231.53504 122.705457 
L 231.753158 121.261785 
L 231.840406 121.222808 
L 231.971277 121.763053 
L 232.145684 123.673932 
L 232.320179 127.330663 
L 232.712705 140.730739 
L 232.756329 139.525519 
L 233.410597 116.605873 
L 233.67234 113.97884 
L 233.803211 113.696146 
L 233.890458 113.886263 
L 234.064866 115.258328 
L 234.282984 119.74469 
L 234.501103 128.48548 
L 234.631974 131.806803 
L 234.762845 125.627437 
L 235.111747 108.558716 
L 235.504273 98.692606 
L 235.896887 93.396597 
L 236.245789 91.054355 
L 236.507531 90.504218 
L 236.638402 90.568865 
L 236.769274 90.86211 
L 237.030929 92.156504 
L 237.379918 95.588493 
L 237.641573 99.700233 
L 238.034187 109.900997 
L 238.339465 125.427272 
L 238.51396 133.454761 
L 238.557584 132.552538 
L 238.993734 117.269578 
L 239.255476 114.952857 
L 239.342723 114.866317 
L 239.473594 115.305256 
L 239.691626 117.545551 
L 239.996992 124.347227 
L 240.302357 138.863471 
L 240.433141 144.035107 
L 240.476765 143.276238 
L 241.00025 125.192814 
L 241.261904 123.152644 
L 241.349152 123.118366 
L 241.480023 123.645617 
L 241.698054 126.072925 
L 241.959797 132.238367 
L 242.352323 149.159449 
L 242.43957 147.349376 
L 242.875807 131.507717 
L 243.137462 128.480431 
L 243.268333 128.125025 
L 243.311957 128.167415 
L 243.442828 128.716446 
L 243.660947 131.324751 
L 243.922601 137.730586 
L 244.271591 151.847829 
L 244.358839 150.441456 
L 244.838612 134.459698 
L 245.100354 131.767717 
L 245.231138 131.567938 
L 245.362009 132.065494 
L 245.580128 134.408319 
L 245.84187 140.504225 
L 246.190772 153.372385 
L 246.27802 152.103188 
L 246.801417 136.353551 
L 247.063159 134.109433 
L 247.150407 134.005423 
L 247.19403 134.066949 
L 247.324814 134.70408 
L 247.542933 137.388805 
L 247.804675 143.978012 
L 248.109954 154.1976 
L 248.153577 154.03444 
L 248.502567 142.451926 
L 248.807846 137.010343 
L 249.025964 135.809664 
L 249.113212 135.855045 
L 249.244083 136.474132 
L 249.505738 140.008962 
L 249.76748 147.100651 
L 250.029222 154.677262 
L 250.072846 154.315526 
L 250.290877 147.619574 
L 250.639867 139.323918 
L 250.901522 137.19294 
L 250.988769 137.112928 
L 251.032393 137.179186 
L 251.163264 137.807876 
L 251.337759 139.814024 
L 251.599414 145.447633 
L 251.948403 154.902251 
L 251.992027 154.429735 
L 252.253682 146.675445 
L 252.602672 139.636476 
L 252.82079 138.13036 
L 252.908038 138.066212 
L 253.038822 138.514364 
L 253.213316 140.216673 
L 253.475059 145.401327 
L 253.823961 154.926407 
L 253.911208 154.357374 
L 254.696348 138.884821 
L 254.783595 138.695114 
L 254.827219 138.714952 
L 254.914466 138.955514 
L 255.132498 140.970848 
L 255.39424 146.154252 
L 255.743142 155.033231 
L 255.786766 154.886225 
L 255.917637 151.93468 
L 256.397411 140.815046 
L 256.659153 139.103428 
L 256.7464 139.111228 
L 256.877271 139.681697 
L 257.051679 141.496097 
L 257.269798 145.653907 
L 257.662411 155.001767 
L 257.749658 153.942507 
L 258.316679 140.790345 
L 258.578334 139.201281 
L 258.665582 139.247596 
L 258.796453 139.852488 
L 259.058195 143.17474 
L 259.581592 154.867774 
L 259.625216 154.317461 
L 259.886871 147.100012 
L 260.23586 140.507716 
L 260.497603 139.047522 
L 260.584763 139.139904 
L 260.715634 139.817984 
L 260.933752 142.528951 
L 261.326366 152.739459 
L 261.45715 154.760847 
L 261.500773 154.552511 
L 261.718892 149.024055 
L 262.067794 141.017973 
L 262.329537 138.741808 
L 262.416784 138.594318 
L 262.460408 138.623529 
L 262.591279 139.135738 
L 262.80931 141.523663 
L 263.114676 148.884183 
L 263.376331 154.477207 
L 263.463578 153.208493 
L 264.030687 139.459552 
L 264.292342 137.789014 
L 264.379589 137.823652 
L 264.51046 138.403181 
L 264.728579 141.029278 
L 264.94661 145.902912 
L 265.251976 154.019354 
L 265.295599 153.946877 
L 265.470007 149.48395 
L 265.818997 139.992008 
L 266.124275 136.718567 
L 266.255147 136.434656 
L 266.342394 136.616868 
L 266.516889 137.959262 
L 266.735007 141.48299 
L 267.171157 153.309088 
L 267.258404 152.084478 
L 267.825425 136.546735 
L 268.087168 134.422262 
L 268.174415 134.330923 
L 268.217951 134.38522 
L 268.348823 135.022162 
L 268.566941 137.706472 
L 268.828683 144.624681 
L 269.090338 151.9682 
L 269.177586 150.183044 
L 269.657446 134.808123 
L 269.919101 131.509498 
L 270.093596 130.89465 
L 270.180844 131.038196 
L 270.355339 132.30859 
L 270.529746 134.984433 
L 270.791488 143.225655 
L 271.009607 149.317277 
L 271.140391 144.67567 
L 271.48938 131.317183 
L 271.881906 125.285143 
L 272.056401 124.608962 
L 272.143649 124.713688 
L 272.27452 125.522867 
L 272.448927 127.953798 
L 272.667046 133.990227 
L 272.885164 143.026902 
L 272.928788 142.915276 
L 273.059659 136.415401 
L 273.408562 120.05463 
L 273.801175 110.679807 
L 274.193701 105.754209 
L 274.49898 103.904762 
L 274.717098 103.433903 
L 274.847969 103.473322 
L 275.022464 103.89701 
L 275.284119 105.361849 
L 275.633109 108.959123 
L 276.025635 116.170149 
L 276.374625 127.47886 
L 276.63628 144.128885 
L 276.767151 157.054272 
L 276.810774 156.545405 
L 277.159764 135.854112 
L 277.421419 131.58759 
L 277.595914 130.9383 
L 277.683161 131.113023 
L 277.857656 132.326823 
L 278.075687 135.698036 
L 278.33743 143.153863 
L 278.555548 155.931316 
L 278.730043 179.153491 
L 278.773579 176.098561 
L 278.991698 153.091764 
L 279.25344 144.538632 
L 279.515095 141.724561 
L 279.645966 141.519232 
L 279.776837 142.018416 
L 279.994956 144.433487 
L 280.256611 150.418021 
L 280.474729 160.385173 
L 280.649224 180.569613 
L 280.736472 194.093158 
L 280.954503 162.198773 
L 281.216245 152.592625 
L 281.477987 149.067972 
L 281.652395 148.566345 
L 281.739642 148.776333 
L 281.914137 150.106644 
L 282.132256 153.711124 
L 282.393911 162.5113 
L 282.568405 175.259535 
L 282.699277 201.505081 
L 282.7429 194.045035 
L 282.960932 166.647096 
L 283.266297 156.69467 
L 283.527952 153.717425 
L 283.658824 153.385915 
L 283.702447 153.426078 
L 283.833318 154.032117 
L 284.051437 156.61855 
L 284.313092 163.313116 
L 284.574834 179.785778 
L 284.705705 191.969486 
L 284.749329 188.034229 
L 285.011071 167.112448 
L 285.31635 158.930846 
L 285.578092 156.672779 
L 285.66534 156.55917 
L 285.708876 156.616773 
L 285.839747 157.230759 
L 286.014242 159.237731 
L 286.275984 165.226958 
L 286.66851 184.161635 
L 286.755758 180.861474 
L 287.10466 164.823416 
L 287.410026 159.624765 
L 287.628144 158.663555 
L 287.715392 158.825468 
L 287.889799 160.010389 
L 288.151542 164.50892 
L 288.413284 172.901011 
L 288.631315 178.978087 
L 288.718563 177.22752 
L 289.24196 162.375586 
L 289.503702 160.290222 
L 289.590949 160.18923 
L 289.634573 160.245628 
L 289.765444 160.852551 
L 289.983476 163.309545 
L 290.245218 168.869059 
L 290.550584 175.595647 
L 290.594207 175.477777 
L 290.768615 172.06133 
L 291.161228 163.661252 
L 291.422883 161.562599 
L 291.510131 161.422874 
L 291.553754 161.45022 
L 291.684626 161.890989 
L 291.902744 163.968716 
L 292.208023 169.365791 
L 292.469765 173.247483 
L 292.513389 173.243819 
L 292.644173 171.922169 
L 293.211281 163.384232 
L 293.429312 162.562949 
L 293.516559 162.635227 
L 293.647431 163.166811 
L 293.865549 165.154113 
L 294.43257 171.624878 
L 294.476194 171.506685 
L 294.607065 170.401638 
L 295.174086 164.213734 
L 295.348581 163.726414 
L 295.435741 163.779925 
L 295.566612 164.206565 
L 295.78473 165.775716 
L 296.351751 170.464536 
L 296.395375 170.416777 
L 296.526246 169.801396 
L 297.180514 165.159832 
L 297.311386 165.03542 
L 297.355009 165.071113 
L 297.48588 165.37839 
L 297.791159 167.110206 
L 298.270933 169.627574 
L 298.35818 169.595998 
L 298.489051 169.249678 
L 299.186943 166.655759 
L 299.317814 166.674661 
L 299.492309 166.976123 
L 300.364609 169.192159 
L 300.626351 169.161821 
L 301.280619 168.671454 
L 301.891264 168.271307 
L 302.065759 168.466457 
L 302.327501 169.295076 
L 302.763651 171.590993 
L 302.981769 172.13608 
L 303.069017 172.041058 
L 303.243424 171.293704 
L 303.854069 168.005242 
L 303.98494 168.017751 
L 304.159435 168.66449 
L 304.377553 170.583842 
L 304.944574 178.003201 
L 304.988198 177.911337 
L 305.119069 176.570721 
L 305.729714 167.889374 
L 305.904208 167.285658 
L 305.991369 167.359894 
L 306.12224 168.007002 
L 306.296735 169.887758 
L 306.514853 174.40719 
L 306.776508 185.803356 
L 306.951003 193.62098 
L 306.994627 192.304789 
L 307.430776 171.659818 
L 307.736142 166.259515 
L 307.997885 164.550529 
L 308.085045 164.476474 
L 308.128668 164.5288 
L 308.25954 165.02536 
L 308.477658 167.271018 
L 308.7394 173.455239 
L 308.957432 185.320821 
L 309.088303 196.927204 
L 309.131926 195.487065 
L 309.480829 168.549786 
L 309.829818 158.248161 
L 310.178721 153.331544 
L 310.396839 152.327681 
L 310.484087 152.407782 
L 310.614958 153.123039 
L 310.789453 155.692587 
L 311.007484 163.539505 
L 311.138355 176.505111 
L 311.225602 214.084398 
L 311.269226 188.235397 
L 311.487345 155.781424 
L 311.836247 139.613284 
L 312.272397 129.211415 
L 312.708634 123.367917 
L 313.057536 120.955287 
L 313.319279 120.28186 
L 313.45015 120.308866 
L 313.624557 120.735673 
L 313.886299 122.286226 
L 314.191665 125.599076 
L 314.540568 132.434875 
L 314.845934 143.049162 
L 315.151212 157.313563 
L 315.194836 156.833288 
L 315.805481 140.128628 
L 316.023599 139.264502 
L 316.110847 139.450075 
L 316.285341 140.692927 
L 316.546996 144.943705 
L 316.852362 154.716415 
L 317.070481 161.614841 
L 317.114105 161.32747 
L 317.332136 154.118772 
L 317.681126 146.384529 
L 317.942781 144.604527 
L 318.030028 144.617475 
L 318.160899 145.213514 
L 318.379018 147.694372 
L 318.640673 153.781145 
L 318.989662 163.389205 
L 319.033286 163.065669 
L 319.207693 158.123196 
L 319.600307 149.276694 
L 319.862049 147.449263 
L 319.949209 147.432048 
L 320.08008 147.945247 
L 320.254575 149.7182 
L 320.516317 154.816966 
L 320.908843 164.391922 
L 321.039715 162.018506 
L 321.519488 150.974271 
L 321.78123 149.177768 
L 321.868478 149.164055 
L 321.999262 149.689414 
L 322.173756 151.443856 
L 322.435499 156.570731 
L 322.784401 165.132102 
L 322.828025 165.084877 
L 322.958896 162.680759 
L 323.395133 152.590763 
L 323.656788 150.39291 
L 323.744035 150.264828 
L 323.787659 150.310111 
L 323.91853 150.846045 
L 324.136561 153.2279 
L 324.485551 161.303218 
L 324.703582 165.79177 
L 324.79083 165.0495 
L 325.488722 151.480051 
L 325.663217 151.002097 
L 325.750464 151.173184 
L 325.924959 152.428313 
L 326.186701 156.528263 
L 326.622851 166.340543 
L 326.666475 166.028364 
L 326.840882 161.957807 
L 327.277119 152.993977 
L 327.49515 151.526452 
L 327.582398 151.453226 
L 327.626022 151.519546 
L 327.756893 152.132112 
L 327.975011 154.704549 
L 328.236753 160.602704 
L 328.542032 166.8354 
L 328.672903 164.469801 
L 329.1963 153.062801 
L 329.458043 151.656938 
L 329.54529 151.751387 
L 329.676074 152.424621 
L 329.894192 155.098235 
L 330.155935 161.325147 
L 330.41759 167.417205 
L 330.461213 167.277988 
L 330.592085 164.526232 
L 331.071858 153.517835 
L 331.3336 151.701259 
L 331.420848 151.668223 
L 331.551719 152.182284 
L 331.726214 153.93984 
L 331.987869 159.127554 
L 332.336858 167.990523 
L 332.380482 167.717927 
L 332.554889 163.19126 
L 332.991127 153.24813 
L 333.252782 151.463755 
L 333.340029 151.46073 
L 333.4709 151.98597 
L 333.689019 154.479893 
L 333.90705 159.232891 
L 334.256039 168.559256 
L 334.299663 168.227789 
L 334.517782 161.613052 
L 334.866684 153.350951 
L 335.128426 151.112874 
L 335.215674 150.969039 
L 335.25921 151.010501 
L 335.390081 151.555675 
L 335.6082 154.061273 
L 335.913479 161.877747 
L 336.175221 169.12786 
L 336.262468 167.547197 
L 336.785865 152.728312 
L 337.047608 150.395359 
L 337.134855 150.235816 
L 337.178479 150.268438 
L 337.30935 150.825679 
L 337.527381 153.394845 
L 337.789123 160.05845 
L 338.094402 169.692935 
L 338.138026 169.058544 
L 338.835918 150.167311 
L 339.054036 149.153501 
L 339.141284 149.284688 
L 339.272155 150.065385 
L 339.446562 152.258325 
L 339.708305 159.03042 
L 340.013671 170.189936 
L 340.057294 169.522885 
L 340.711563 149.221998 
L 340.929594 147.679681 
L 341.016841 147.614727 
L 341.147712 148.080481 
L 341.365831 150.549381 
L 341.627486 157.485212 
L 341.932852 170.454991 
L 342.020099 167.835852 
L 342.499873 149.376921 
L 342.761615 145.9981 
L 342.936023 145.403159 
L 343.02327 145.556422 
L 343.154141 146.420622 
L 343.37226 149.744341 
L 343.634002 158.627648 
L 343.852033 170.119054 
L 343.895657 169.697071 
L 344.593549 143.960465 
L 344.855291 142.24207 
L 344.942451 142.298947 
L 345.073322 142.966161 
L 345.247817 145.194956 
L 345.465936 150.703473 
L 345.727591 165.301339 
L 345.814838 168.781866 
L 345.858462 166.960947 
L 346.251075 145.415607 
L 346.556354 139.210651 
L 346.818096 137.461677 
L 346.905343 137.504531 
L 347.036215 138.152022 
L 347.210622 140.372396 
L 347.428741 146.300461 
L 347.646859 159.004078 
L 347.734107 164.936648 
L 347.777643 164.139603 
L 348.21388 138.286007 
L 348.562783 131.129338 
L 348.824525 129.440784 
L 348.911772 129.489557 
L 349.042643 130.194764 
L 349.217138 132.579096 
L 349.391546 137.37364 
L 349.609664 150.863167 
L 349.696912 155.520066 
L 349.740535 153.290672 
L 350.089438 127.689436 
L 350.482051 115.763268 
L 350.961825 108.470769 
L 351.310727 105.902687 
L 351.572469 105.162712 
L 351.70334 105.151068 
L 351.877835 105.498923 
L 352.095866 106.538965 
L 352.401232 109.294759 
L 352.750135 114.64752 
L 353.099124 123.921553 
L 353.360779 136.460788 
L 353.578898 153.983909 
L 353.622522 153.1875 
L 354.015048 133.103031 
L 354.27679 129.461777 
L 354.451285 128.999521 
L 354.538532 129.249217 
L 354.713027 130.614701 
L 354.931058 134.218491 
L 355.1928 142.465173 
L 355.454543 159.448925 
L 355.541703 162.672462 
L 355.585327 160.802784 
L 355.934316 142.533436 
L 356.239595 137.462443 
L 356.41409 136.759172 
L 356.501337 136.884035 
L 356.632208 137.668742 
L 356.850239 140.593773 
L 357.111982 147.839557 
L 357.373724 162.549693 
L 357.460971 166.408931 
L 357.504595 165.423809 
L 357.984369 144.975898 
L 358.246111 141.758042 
L 358.376895 141.382593 
L 358.420518 141.414039 
L 358.551389 141.952626 
L 358.769508 144.565731 
L 359.031163 151.176703 
L 359.380153 167.983614 
L 359.4674 166.027488 
L 359.90355 148.397978 
L 360.208916 144.739945 
L 360.3397 144.47764 
L 360.426947 144.674126 
L 360.601442 146.059663 
L 360.81956 149.767923 
L 361.124839 160.760728 
L 361.299334 168.804197 
L 361.342958 168.748079 
L 361.517452 161.2103 
L 361.822731 150.813729 
L 362.128097 146.994003 
L 362.258968 146.644992 
L 362.302592 146.688266 
L 362.433376 147.277291 
L 362.607871 149.144854 
L 362.869613 155.197091 
L 363.262139 169.217631 
L 363.305763 168.261421 
L 363.829247 150.899931 
L 364.090902 148.370058 
L 364.178149 148.197396 
L 364.221773 148.224476 
L 364.352644 148.755933 
L 364.570676 151.279466 
L 364.832418 157.788264 
L 365.181407 169.448261 
L 365.224944 168.523636 
L 365.835676 150.811631 
L 366.053707 149.351943 
L 366.140954 149.319805 
L 366.271826 149.83059 
L 366.44632 151.648047 
L 366.664352 156.044128 
L 367.100589 169.510488 
L 367.144212 168.6339 
L 367.798481 151.110198 
L 368.016512 150.042747 
L 368.103759 150.149902 
L 368.278254 151.279091 
L 368.539996 155.597421 
L 368.976146 169.579111 
L 369.063394 168.60448 
L 369.630415 152.534368 
L 369.892157 150.541536 
L 369.979404 150.509068 
L 370.110275 151.030764 
L 370.328307 153.488693 
L 370.590049 159.872707 
L 370.895328 169.609008 
L 370.938951 169.422121 
L 371.113446 163.696963 
L 371.505972 153.22308 
L 371.767714 150.840455 
L 371.854962 150.660779 
L 371.898585 150.685373 
L 372.029457 151.211258 
L 372.247488 153.697041 
L 372.50923 159.997593 
L 372.814596 169.590247 
L 372.85822 169.257867 
L 373.032627 163.549974 
L 373.381617 153.815916 
L 373.686896 150.727862 
L 373.774143 150.567205 
L 373.817767 150.599117 
L 373.948638 151.144956 
L 373.948638 151.144956 
" clip-path="url(#p4930f00f5c)" style="fill: none; stroke: #1a5276; stroke-width: 0.7; stroke-linecap: square"/>
   </g>
   <g id="line2d_15">
    <path d="M 88.126683 42.823967 
" clip-path="url(#p4930f00f5c)" style="fill: none; stroke: #7d3c98; stroke-width: 1.5; stroke-linecap: square"/>
    <defs>
     <path id="m4a34716670" d="M -0 2.5 
L 2.5 -2.5 
L -2.5 -2.5 
z
" style="stroke: #7d3c98; stroke-linejoin: miter"/>
    </defs>
    <g clip-path="url(#p4930f00f5c)">
     <use xlink:href="#m4a34716670" x="88.126683" y="42.823967" style="fill: #7d3c98; stroke: #7d3c98; stroke-linejoin: miter"/>
    </g>
   </g>
   <g id="line2d_16">
    <path d="M 86.111799 21.100065 
" clip-path="url(#p4930f00f5c)" style="fill: none; stroke: #b9770e; stroke-width: 1.5; stroke-linecap: square"/>
    <defs>
     <path id="m31a30e7147" d="M -0 2.5 
L 2.5 -2.5 
L -2.5 -2.5 
z
" style="stroke: #b9770e; stroke-linejoin: miter"/>
    </defs>
    <g clip-path="url(#p4930f00f5c)">
     <use xlink:href="#m31a30e7147" x="86.111799" y="21.100065" style="fill: #b9770e; stroke: #b9770e; stroke-linejoin: miter"/>
    </g>
   </g>
   <g id="line2d_17">
    <path d="M 123.271238 42.823967 
" clip-path="url(#p4930f00f5c)" style="fill: none; stroke: #7d3c98; stroke-width: 1.5; stroke-linecap: square"/>
    <g clip-path="url(#p4930f00f5c)">
     <use xlink:href="#m4a34716670" x="123.271238" y="42.823967" style="fill: #7d3c98; stroke: #7d3c98; stroke-linejoin: miter"/>
    </g>
   </g>
   <g id="line2d_18">
    <path d="M 129.817298 21.100065 
" clip-path="url(#p4930f00f5c)" style="fill: none; stroke: #b9770e; stroke-width: 1.5; stroke-linecap: square"/>
    <g clip-path="url(#p4930f00f5c)">
     <use xlink:href="#m31a30e7147" x="129.817298" y="21.100065" style="fill: #b9770e; stroke: #b9770e; stroke-linejoin: miter"/>
    </g>
   </g>
   <g id="line2d_19">
    <path d="M 160.537384 42.823967 
" clip-path="url(#p4930f00f5c)" style="fill: none; stroke: #7d3c98; stroke-width: 1.5; stroke-linecap: square"/>
    <g clip-path="url(#p4930f00f5c)">
     <use xlink:href="#m4a34716670" x="160.537384" y="42.823967" style="fill: #7d3c98; stroke: #7d3c98; stroke-linejoin: miter"/>
    </g>
   </g>
   <g id="line2d_20">
    <path d="M 173.522797 21.100065 
" clip-path="url(#p4930f00f5c)" style="fill: none; stroke: #b9770e; stroke-width: 1.5; stroke-linecap: square"/>
    <g clip-path="url(#p4930f00f5c)">
     <use xlink:href="#m31a30e7147" x="173.522797" y="21.100065" style="fill: #b9770e; stroke: #b9770e; stroke-linejoin: miter"/>
    </g>
   </g>
   <g id="line2d_21">
    <path d="M 198.417709 42.823967 
" clip-path="url(#p4930f00f5c)" style="fill: none; stroke: #7d3c98; stroke-width: 1.5; stroke-linecap: square"/>
    <g clip-path="url(#p4930f00f5c)">
     <use xlink:href="#m4a34716670" x="198.417709" y="42.823967" style="fill: #7d3c98; stroke: #7d3c98; stroke-linejoin: miter"/>
    </g>
   </g>
   <g id="line2d_22">
    <path d="M 217.228297 21.100065 
" clip-path="url(#p4930f00f5c)" style="fill: none; stroke: #b9770e; stroke-width: 1.5; stroke-linecap: square"/>
    <g clip-path="url(#p4930f00f5c)">
     <use xlink:href="#m31a30e7147" x="217.228297" y="21.100065" style="fill: #b9770e; stroke: #b9770e; stroke-linejoin: miter"/>
    </g>
   </g>
   <g id="line2d_23">
    <path d="M 236.559401 42.823967 
" clip-path="url(#p4930f00f5c)" style="fill: none; stroke: #7d3c98; stroke-width: 1.5; stroke-linecap: square"/>
    <g clip-path="url(#p4930f00f5c)">
     <use xlink:href="#m4a34716670" x="236.559401" y="42.823967" style="fill: #7d3c98; stroke: #7d3c98; stroke-linejoin: miter"/>
    </g>
   </g>
   <g id="line2d_24">
    <path d="M 260.933796 21.100065 
" clip-path="url(#p4930f00f5c)" style="fill: none; stroke: #b9770e; stroke-width: 1.5; stroke-linecap: square"/>
    <g clip-path="url(#p4930f00f5c)">
     <use xlink:href="#m31a30e7147" x="260.933796" y="21.100065" style="fill: #b9770e; stroke: #b9770e; stroke-linejoin: miter"/>
    </g>
   </g>
   <g id="line2d_25">
    <path d="M 274.840661 42.823967 
" clip-path="url(#p4930f00f5c)" style="fill: none; stroke: #7d3c98; stroke-width: 1.5; stroke-linecap: square"/>
    <g clip-path="url(#p4930f00f5c)">
     <use xlink:href="#m4a34716670" x="274.840661" y="42.823967" style="fill: #7d3c98; stroke: #7d3c98; stroke-linejoin: miter"/>
    </g>
   </g>
   <g id="line2d_26">
    <path d="M 304.639295 21.100065 
" clip-path="url(#p4930f00f5c)" style="fill: none; stroke: #b9770e; stroke-width: 1.5; stroke-linecap: square"/>
    <g clip-path="url(#p4930f00f5c)">
     <use xlink:href="#m31a30e7147" x="304.639295" y="21.100065" style="fill: #b9770e; stroke: #b9770e; stroke-linejoin: miter"/>
    </g>
   </g>
   <g id="line2d_27">
    <path d="M 313.209488 42.823967 
" clip-path="url(#p4930f00f5c)" style="fill: none; stroke: #7d3c98; stroke-width: 1.5; stroke-linecap: square"/>
    <g clip-path="url(#p4930f00f5c)">
     <use xlink:href="#m4a34716670" x="313.209488" y="42.823967" style="fill: #7d3c98; stroke: #7d3c98; stroke-linejoin: miter"/>
    </g>
   </g>
   <g id="line2d_28">
    <path d="M 348.344795 21.100065 
" clip-path="url(#p4930f00f5c)" style="fill: none; stroke: #b9770e; stroke-width: 1.5; stroke-linecap: square"/>
    <g clip-path="url(#p4930f00f5c)">
     <use xlink:href="#m31a30e7147" x="348.344795" y="21.100065" style="fill: #b9770e; stroke: #b9770e; stroke-linejoin: miter"/>
    </g>
   </g>
   <g id="line2d_29">
    <path d="M 351.640736 42.823967 
" clip-path="url(#p4930f00f5c)" style="fill: none; stroke: #7d3c98; stroke-width: 1.5; stroke-linecap: square"/>
    <g clip-path="url(#p4930f00f5c)">
     <use xlink:href="#m4a34716670" x="351.640736" y="42.823967" style="fill: #7d3c98; stroke: #7d3c98; stroke-linejoin: miter"/>
    </g>
   </g>
   <g id="patch_3">
    <path d="M 42.406299 210.528 
L 42.406299 7.344 
" style="fill: none; stroke: #334155; stroke-width: 0.8; stroke-linejoin: miter; stroke-linecap: square"/>
   </g>
   <g id="patch_4">
    <path d="M 42.406299 210.528 
L 373.946457 210.528 
" style="fill: none; stroke: #334155; stroke-width: 0.8; stroke-linejoin: miter; stroke-linecap: square"/>
   </g>
   <g id="text_16">
    <text style="font-size: 8px; font-family: 'DejaVu Sans', 'Bitstream Vera Sans', 'Computer Modern Sans Serif', 'Lucida Grande', 'Verdana', 'Geneva', 'Lucid', 'Arial', 'Helvetica', 'Avant Garde', sans-serif; text-anchor: middle; fill: #7d3c98" x="88.126683" y="36.142394" transform="rotate(-0 88.126683 36.142394)">1</text>
   </g>
   <g id="text_17">
    <text style="font-size: 8px; font-family: 'DejaVu Sans', 'Bitstream Vera Sans', 'Computer Modern Sans Serif', 'Lucida Grande', 'Verdana', 'Geneva', 'Lucid', 'Arial', 'Helvetica', 'Avant Garde', sans-serif; text-anchor: middle; fill: #b9770e" x="86.111799" y="14.418491" transform="rotate(-0 86.111799 14.418491)">1</text>
   </g>
   <g id="text_18">
    <text style="font-size: 8px; font-family: 'DejaVu Sans', 'Bitstream Vera Sans', 'Computer Modern Sans Serif', 'Lucida Grande', 'Verdana', 'Geneva', 'Lucid', 'Arial', 'Helvetica', 'Avant Garde', sans-serif; text-anchor: middle; fill: #7d3c98" x="123.271238" y="36.142394" transform="rotate(-0 123.271238 36.142394)">2</text>
   </g>
   <g id="text_19">
    <text style="font-size: 8px; font-family: 'DejaVu Sans', 'Bitstream Vera Sans', 'Computer Modern Sans Serif', 'Lucida Grande', 'Verdana', 'Geneva', 'Lucid', 'Arial', 'Helvetica', 'Avant Garde', sans-serif; text-anchor: middle; fill: #b9770e" x="129.817298" y="14.418491" transform="rotate(-0 129.817298 14.418491)">2</text>
   </g>
   <g id="text_20">
    <text style="font-size: 8px; font-family: 'DejaVu Sans', 'Bitstream Vera Sans', 'Computer Modern Sans Serif', 'Lucida Grande', 'Verdana', 'Geneva', 'Lucid', 'Arial', 'Helvetica', 'Avant Garde', sans-serif; text-anchor: middle; fill: #7d3c98" x="160.537384" y="36.142394" transform="rotate(-0 160.537384 36.142394)">3</text>
   </g>
   <g id="text_21">
    <text style="font-size: 8px; font-family: 'DejaVu Sans', 'Bitstream Vera Sans', 'Computer Modern Sans Serif', 'Lucida Grande', 'Verdana', 'Geneva', 'Lucid', 'Arial', 'Helvetica', 'Avant Garde', sans-serif; text-anchor: middle; fill: #b9770e" x="173.522797" y="14.418491" transform="rotate(-0 173.522797 14.418491)">3</text>
   </g>
   <g id="text_22">
    <text style="font-size: 8px; font-family: 'DejaVu Sans', 'Bitstream Vera Sans', 'Computer Modern Sans Serif', 'Lucida Grande', 'Verdana', 'Geneva', 'Lucid', 'Arial', 'Helvetica', 'Avant Garde', sans-serif; text-anchor: middle; fill: #7d3c98" x="198.417709" y="36.142394" transform="rotate(-0 198.417709 36.142394)">4</text>
   </g>
   <g id="text_23">
    <text style="font-size: 8px; font-family: 'DejaVu Sans', 'Bitstream Vera Sans', 'Computer Modern Sans Serif', 'Lucida Grande', 'Verdana', 'Geneva', 'Lucid', 'Arial', 'Helvetica', 'Avant Garde', sans-serif; text-anchor: middle; fill: #b9770e" x="217.228297" y="14.418491" transform="rotate(-0 217.228297 14.418491)">4</text>
   </g>
   <g id="text_24">
    <text style="font-size: 8px; font-family: 'DejaVu Sans', 'Bitstream Vera Sans', 'Computer Modern Sans Serif', 'Lucida Grande', 'Verdana', 'Geneva', 'Lucid', 'Arial', 'Helvetica', 'Avant Garde', sans-serif; text-anchor: middle; fill: #7d3c98" x="236.559401" y="36.142394" transform="rotate(-0 236.559401 36.142394)">5</text>
   </g>
   <g id="text_25">
    <text style="font-size: 8px; font-family: 'DejaVu Sans', 'Bitstream Vera Sans', 'Computer Modern Sans Serif', 'Lucida Grande', 'Verdana', 'Geneva', 'Lucid', 'Arial', 'Helvetica', 'Avant Garde', sans-serif; text-anchor: middle; fill: #b9770e" x="260.933796" y="14.418491" transform="rotate(-0 260.933796 14.418491)">5</text>
   </g>
   <g id="text_26">
    <text style="font-size: 8px; font-family: 'DejaVu Sans', 'Bitstream Vera Sans', 'Computer Modern Sans Serif', 'Lucida Grande', 'Verdana', 'Geneva', 'Lucid', 'Arial', 'Helvetica', 'Avant Garde', sans-serif; text-anchor: middle; fill: #7d3c98" x="274.840661" y="36.142394" transform="rotate(-0 274.840661 36.142394)">6</text>
   </g>
   <g id="text_27">
    <text style="font-size: 8px; font-family: 'DejaVu Sans', 'Bitstream Vera Sans', 'Computer Modern Sans Serif', 'Lucida Grande', 'Verdana', 'Geneva', 'Lucid', 'Arial', 'Helvetica', 'Avant Garde', sans-serif; text-anchor: middle; fill: #b9770e" x="304.639295" y="14.418491" transform="rotate(-0 304.639295 14.418491)">6</text>
   </g>
   <g id="text_28">
    <text style="font-size: 8px; font-family: 'DejaVu Sans', 'Bitstream Vera Sans', 'Computer Modern Sans Serif', 'Lucida Grande', 'Verdana', 'Geneva', 'Lucid', 'Arial', 'Helvetica', 'Avant Garde', sans-serif; text-anchor: middle; fill: #7d3c98" x="313.209488" y="36.142394" transform="rotate(-0 313.209488 36.142394)">7</text>
   </g>
   <g id="text_29">
    <text style="font-size: 8px; font-family: 'DejaVu Sans', 'Bitstream Vera Sans', 'Computer Modern Sans Serif', 'Lucida Grande', 'Verdana', 'Geneva', 'Lucid', 'Arial', 'Helvetica', 'Avant Garde', sans-serif; text-anchor: middle; fill: #b9770e" x="348.344795" y="14.418491" transform="rotate(-0 348.344795 14.418491)">7</text>
   </g>
   <g id="text_30">
    <text style="font-size: 8px; font-family: 'DejaVu Sans', 'Bitstream Vera Sans', 'Computer Modern Sans Serif', 'Lucida Grande', 'Verdana', 'Geneva', 'Lucid', 'Arial', 'Helvetica', 'Avant Garde', sans-serif; text-anchor: middle; fill: #7d3c98" x="351.640736" y="36.142394" transform="rotate(-0 351.640736 36.142394)">8</text>
   </g>
   <g id="legend_1">
    <g id="line2d_30">
     <g>
      <use xlink:href="#m31a30e7147" x="57.606299" y="187.12175" style="fill: #b9770e; stroke: #b9770e; stroke-linejoin: miter"/>
     </g>
    </g>
    <g id="text_31">
     <text style="font-size: 8px; font-family: 'DejaVu Sans', 'Bitstream Vera Sans', 'Computer Modern Sans Serif', 'Lucida Grande', 'Verdana', 'Geneva', 'Lucid', 'Arial', 'Helvetica', 'Avant Garde', sans-serif; text-anchor: start" x="72.006299" y="189.92175" transform="rotate(-0 72.006299 189.92175)">evenly spaced, m × 2θ₁</text>
    </g>
    <g id="line2d_31">
     <g>
      <use xlink:href="#m4a34716670" x="57.606299" y="198.86425" style="fill: #7d3c98; stroke: #7d3c98; stroke-linejoin: miter"/>
     </g>
    </g>
    <g id="text_32">
     <text style="font-size: 8px; font-family: 'DejaVu Sans', 'Bitstream Vera Sans', 'Computer Modern Sans Serif', 'Lucida Grande', 'Verdana', 'Geneva', 'Lucid', 'Arial', 'Helvetica', 'Avant Garde', sans-serif; text-anchor: start" x="72.006299" y="201.66425" transform="rotate(-0 72.006299 201.66425)">Bragg law with refraction</text>
    </g>
   </g>
  </g>
 </g>
 <defs>
  <clipPath id="p4930f00f5c">
   <rect x="42.406299" y="7.344" width="331.540157" height="203.184"/>
  </clipPath>
 </defs>
</svg>
